<?xml version="1.0" encoding="UTF-8" standalone="no"?>
<!DOCTYPE svg PUBLIC "-//W3C//DTD SVG 1.1//EN"
 "http://www.w3.org/Graphics/SVG/1.1/DTD/svg11.dtd">
<!-- Generated by graphviz version 2.38.0 (20140413.2041)
 -->
<!-- Title: FST Pages: 1 -->
<svg width="612pt" height="32pt"
 viewBox="0.00 0.00 612.00 32.19" xmlns="http://www.w3.org/2000/svg" xmlns:xlink="http://www.w3.org/1999/xlink">
<g id="graph0" class="graph" transform="scale(0.258558 0.258558) rotate(0) translate(4 120.498)">
<title>FST</title>
<polygon fill="white" stroke="none" points="-4,4 -4,-120.498 2362.97,-120.498 2362.97,4 -4,4"/>
<!-- 0 -->
<g id="node1" class="node"><title>0</title>
<ellipse fill="none" stroke="black" stroke-width="2" cx="18" cy="-54.4983" rx="18" ry="18"/>
<text text-anchor="middle" x="18" y="-50.7983" font-family="Times,serif" font-size="14.00">0</text>
</g>
<!-- 1 -->
<g id="node2" class="node"><title>1</title>
<ellipse fill="none" stroke="black" cx="178" cy="-54.4983" rx="18" ry="18"/>
<text text-anchor="middle" x="178" y="-50.7983" font-family="Times,serif" font-size="14.00">1</text>
</g>
<!-- 0&#45;&gt;1 -->
<g id="edge1" class="edge"><title>0&#45;&gt;1</title>
<path fill="none" stroke="black" d="M36.2095,-54.4983C63.5155,-54.4983 117.006,-54.4983 149.62,-54.4983"/>
<polygon fill="black" stroke="black" points="149.812,-57.9984 159.812,-54.4983 149.812,-50.9984 149.812,-57.9984"/>
<text text-anchor="middle" x="98" y="-58.2983" font-family="Times,serif" font-size="14.00">0:&lt;eps&gt;/0.69315</text>
</g>
<!-- 0&#45;&gt;1 -->
<g id="edge2" class="edge"><title>0&#45;&gt;1</title>
<path fill="none" stroke="black" d="M32.9086,-44.0375C38.2739,-40.6134 44.6448,-37.2428 51,-35.4983 91.2875,-24.4392 104.713,-24.4392 145,-35.4983 148.078,-36.3433 151.16,-37.5698 154.13,-38.9991"/>
<polygon fill="black" stroke="black" points="152.659,-42.1875 163.091,-44.0375 156.09,-36.0858 152.659,-42.1875"/>
<text text-anchor="middle" x="98" y="-39.2983" font-family="Times,serif" font-size="14.00">1:&lt;eps&gt;/0.69315</text>
</g>
<!-- 2 -->
<g id="node3" class="node"><title>2</title>
<ellipse fill="none" stroke="black" cx="303" cy="-83.4983" rx="18" ry="18"/>
<text text-anchor="middle" x="303" y="-79.7983" font-family="Times,serif" font-size="14.00">2</text>
</g>
<!-- 1&#45;&gt;2 -->
<g id="edge3" class="edge"><title>1&#45;&gt;2</title>
<path fill="none" stroke="black" d="M195.588,-58.4093C216.038,-63.2307 251.053,-71.4864 275.305,-77.2042"/>
<polygon fill="black" stroke="black" points="274.745,-80.6683 285.282,-79.5565 276.352,-73.8551 274.745,-80.6683"/>
<text text-anchor="middle" x="240.5" y="-79.2983" font-family="Times,serif" font-size="14.00">30:WHAT</text>
</g>
<!-- 3 -->
<g id="node4" class="node"><title>3</title>
<ellipse fill="none" stroke="black" cx="362" cy="-34.4983" rx="18" ry="18"/>
<text text-anchor="middle" x="362" y="-30.7983" font-family="Times,serif" font-size="14.00">3</text>
</g>
<!-- 1&#45;&gt;3 -->
<g id="edge4" class="edge"><title>1&#45;&gt;3</title>
<path fill="none" stroke="black" d="M194.666,-47.5346C199.776,-45.5602 205.541,-43.6392 211,-42.4983 253.06,-33.7081 303.115,-32.919 333.451,-33.473"/>
<polygon fill="black" stroke="black" points="333.6,-36.9776 343.684,-33.7255 333.773,-29.9797 333.6,-36.9776"/>
<text text-anchor="middle" x="240.5" y="-46.2983" font-family="Times,serif" font-size="14.00">28:WHAT</text>
</g>
<!-- 4 -->
<g id="node5" class="node"><title>4</title>
<ellipse fill="none" stroke="black" cx="429" cy="-86.4983" rx="18" ry="18"/>
<text text-anchor="middle" x="429" y="-82.7983" font-family="Times,serif" font-size="14.00">4</text>
</g>
<!-- 2&#45;&gt;4 -->
<g id="edge5" class="edge"><title>2&#45;&gt;4</title>
<path fill="none" stroke="black" d="M321.242,-83.9154C341.786,-84.4124 376.369,-85.2491 400.592,-85.8352"/>
<polygon fill="black" stroke="black" points="400.823,-89.3417 410.905,-86.0847 400.992,-82.3437 400.823,-89.3417"/>
<text text-anchor="middle" x="362" y="-89.2983" font-family="Times,serif" font-size="14.00">26:&lt;eps&gt;</text>
</g>
<!-- 5 -->
<g id="node6" class="node"><title>5</title>
<ellipse fill="none" stroke="black" cx="555" cy="-34.4983" rx="18" ry="18"/>
<text text-anchor="middle" x="555" y="-30.7983" font-family="Times,serif" font-size="14.00">5</text>
</g>
<!-- 3&#45;&gt;5 -->
<g id="edge6" class="edge"><title>3&#45;&gt;5</title>
<path fill="none" stroke="black" d="M380.287,-34.4983C413.597,-34.4983 486.902,-34.4983 526.811,-34.4983"/>
<polygon fill="black" stroke="black" points="526.89,-37.9984 536.89,-34.4983 526.89,-30.9984 526.89,-37.9984"/>
<text text-anchor="middle" x="429" y="-38.2983" font-family="Times,serif" font-size="14.00">31:&lt;eps&gt;</text>
</g>
<!-- 6 -->
<g id="node7" class="node"><title>6</title>
<ellipse fill="none" stroke="black" cx="555" cy="-88.4983" rx="18" ry="18"/>
<text text-anchor="middle" x="555" y="-84.7983" font-family="Times,serif" font-size="14.00">6</text>
</g>
<!-- 4&#45;&gt;6 -->
<g id="edge7" class="edge"><title>4&#45;&gt;6</title>
<path fill="none" stroke="black" d="M447.242,-86.7764C467.786,-87.1077 502.369,-87.6655 526.592,-88.0562"/>
<polygon fill="black" stroke="black" points="526.85,-91.5607 536.905,-88.2225 526.963,-84.5616 526.85,-91.5607"/>
<text text-anchor="middle" x="496" y="-91.2983" font-family="Times,serif" font-size="14.00">31:&lt;eps&gt;</text>
</g>
<!-- 7 -->
<g id="node8" class="node"><title>7</title>
<ellipse fill="none" stroke="black" cx="897" cy="-57.4983" rx="18" ry="18"/>
<text text-anchor="middle" x="897" y="-53.7983" font-family="Times,serif" font-size="14.00">7</text>
</g>
<!-- 5&#45;&gt;7 -->
<g id="edge8" class="edge"><title>5&#45;&gt;7</title>
<path fill="none" stroke="black" d="M572.698,-29.9535C612.864,-19.7237 717.859,2.83562 803,-15.4983 827.924,-20.8654 854.216,-33.4713 872.461,-43.4811"/>
<polygon fill="black" stroke="black" points="870.79,-46.557 881.219,-48.4268 874.233,-40.4618 870.79,-46.557"/>
<text text-anchor="middle" x="753" y="-19.2983" font-family="Times,serif" font-size="14.00">32:&lt;eps&gt;/0.69315</text>
</g>
<!-- 8 -->
<g id="node9" class="node"><title>8</title>
<ellipse fill="none" stroke="black" cx="753" cy="-57.4983" rx="18" ry="18"/>
<text text-anchor="middle" x="753" y="-53.7983" font-family="Times,serif" font-size="14.00">8</text>
</g>
<!-- 5&#45;&gt;8 -->
<g id="edge9" class="edge"><title>5&#45;&gt;8</title>
<path fill="none" stroke="black" d="M573.171,-34.8629C598.438,-35.5814 647.069,-37.6585 688,-43.4983 700.414,-45.2694 714.006,-48.1116 725.458,-50.7739"/>
<polygon fill="black" stroke="black" points="724.738,-54.2005 735.279,-53.1323 726.373,-47.394 724.738,-54.2005"/>
<text text-anchor="middle" x="638" y="-47.2983" font-family="Times,serif" font-size="14.00">32:&lt;eps&gt;/0.69315</text>
</g>
<!-- 6&#45;&gt;7 -->
<g id="edge10" class="edge"><title>6&#45;&gt;7</title>
<path fill="none" stroke="black" d="M572.425,-94.048C577.372,-95.4654 582.855,-96.7885 588,-97.4983 682.832,-110.58 707.975,-96.0994 803,-84.4983 830.142,-81.1847 838.16,-85.439 864,-76.4983 867.017,-75.4545 870.061,-74.1059 873.01,-72.6091"/>
<polygon fill="black" stroke="black" points="874.997,-75.5049 881.953,-67.5136 871.532,-69.4228 874.997,-75.5049"/>
<text text-anchor="middle" x="753" y="-102.298" font-family="Times,serif" font-size="14.00">32:&lt;eps&gt;/0.69315</text>
</g>
<!-- 6&#45;&gt;8 -->
<g id="edge11" class="edge"><title>6&#45;&gt;8</title>
<path fill="none" stroke="black" d="M572.92,-85.2143C577.783,-84.3009 583.096,-83.3315 588,-82.4983 635.959,-74.3491 692.026,-66.0703 724.623,-61.3805"/>
<polygon fill="black" stroke="black" points="725.33,-64.8151 734.733,-59.933 724.337,-57.8858 725.33,-64.8151"/>
<text text-anchor="middle" x="638" y="-86.2983" font-family="Times,serif" font-size="14.00">32:&lt;eps&gt;/0.69315</text>
</g>
<!-- 9 -->
<g id="node10" class="node"><title>9</title>
<ellipse fill="none" stroke="black" cx="1008.5" cy="-89.4983" rx="18" ry="18"/>
<text text-anchor="middle" x="1008.5" y="-85.7983" font-family="Times,serif" font-size="14.00">9</text>
</g>
<!-- 7&#45;&gt;9 -->
<g id="edge12" class="edge"><title>7&#45;&gt;9</title>
<path fill="none" stroke="black" d="M914.63,-62.3584C932.339,-67.5336 960.61,-75.7955 981.313,-81.8457"/>
<polygon fill="black" stroke="black" points="980.49,-85.2516 991.07,-84.6973 982.453,-78.5326 980.49,-85.2516"/>
<text text-anchor="middle" x="952" y="-82.2983" font-family="Times,serif" font-size="14.00">36:THE</text>
</g>
<!-- 10 -->
<g id="node11" class="node"><title>10</title>
<ellipse fill="none" stroke="black" cx="1008.5" cy="-34.4983" rx="19.4965" ry="19.4965"/>
<text text-anchor="middle" x="1008.5" y="-30.7983" font-family="Times,serif" font-size="14.00">10</text>
</g>
<!-- 7&#45;&gt;10 -->
<g id="edge13" class="edge"><title>7&#45;&gt;10</title>
<path fill="none" stroke="black" d="M914.16,-51.9767C919.194,-50.3842 924.792,-48.7427 930,-47.4983 946.016,-43.6714 964.158,-40.5632 978.86,-38.3468"/>
<polygon fill="black" stroke="black" points="979.484,-41.7929 988.878,-36.8929 978.479,-34.8655 979.484,-41.7929"/>
<text text-anchor="middle" x="952" y="-51.2983" font-family="Times,serif" font-size="14.00">36:THE</text>
</g>
<!-- 8&#45;&gt;7 -->
<g id="edge14" class="edge"><title>8&#45;&gt;7</title>
<path fill="none" stroke="black" d="M771.129,-57.4983C795.33,-57.4983 839.789,-57.4983 868.607,-57.4983"/>
<polygon fill="black" stroke="black" points="868.811,-60.9984 878.811,-57.4983 868.811,-53.9984 868.811,-60.9984"/>
<text text-anchor="middle" x="841" y="-61.2983" font-family="Times,serif" font-size="14.00">1:&lt;eps&gt;</text>
</g>
<!-- 11 -->
<g id="node12" class="node"><title>11</title>
<ellipse fill="none" stroke="black" cx="1353.49" cy="-58.4983" rx="19.4965" ry="19.4965"/>
<text text-anchor="middle" x="1353.49" y="-54.7983" font-family="Times,serif" font-size="14.00">11</text>
</g>
<!-- 9&#45;&gt;11 -->
<g id="edge15" class="edge"><title>9&#45;&gt;11</title>
<path fill="none" stroke="black" d="M1025.64,-95.3473C1031.08,-97.0393 1037.23,-98.6561 1043,-99.4983 1137.72,-113.335 1163.07,-98.8631 1258,-86.4983 1285.17,-82.9586 1293.08,-86.4101 1319,-77.4983 1321.94,-76.4872 1324.91,-75.2166 1327.82,-73.8141"/>
<polygon fill="black" stroke="black" points="1329.55,-76.8546 1336.71,-69.0405 1326.24,-70.6873 1329.55,-76.8546"/>
<text text-anchor="middle" x="1208" y="-105.298" font-family="Times,serif" font-size="14.00">48:&lt;eps&gt;/0.69315</text>
</g>
<!-- 12 -->
<g id="node13" class="node"><title>12</title>
<ellipse fill="none" stroke="black" cx="1208" cy="-58.4983" rx="19.4965" ry="19.4965"/>
<text text-anchor="middle" x="1208" y="-54.7983" font-family="Times,serif" font-size="14.00">12</text>
</g>
<!-- 9&#45;&gt;12 -->
<g id="edge16" class="edge"><title>9&#45;&gt;12</title>
<path fill="none" stroke="black" d="M1026.34,-86.8552C1060.15,-81.5483 1136.62,-69.5443 1178.41,-62.9846"/>
<polygon fill="black" stroke="black" points="1179.15,-66.4117 1188.49,-61.4034 1178.07,-59.4964 1179.15,-66.4117"/>
<text text-anchor="middle" x="1093" y="-87.2983" font-family="Times,serif" font-size="14.00">48:&lt;eps&gt;/0.69315</text>
</g>
<!-- 10&#45;&gt;11 -->
<g id="edge17" class="edge"><title>10&#45;&gt;11</title>
<path fill="none" stroke="black" d="M1027.52,-29.6144C1068.8,-19.1824 1173.21,2.88435 1258,-15.4983 1282.9,-20.8973 1309.11,-33.4449 1327.6,-43.6001"/>
<polygon fill="black" stroke="black" points="1326.08,-46.7652 1336.51,-48.6421 1329.53,-40.6723 1326.08,-46.7652"/>
<text text-anchor="middle" x="1208" y="-19.2983" font-family="Times,serif" font-size="14.00">15:&lt;eps&gt;/0.69315</text>
</g>
<!-- 10&#45;&gt;12 -->
<g id="edge18" class="edge"><title>10&#45;&gt;12</title>
<path fill="none" stroke="black" d="M1028.16,-35.0685C1054.06,-36.0476 1102.29,-38.5516 1143,-44.4983 1154.85,-46.2301 1167.79,-48.9071 1178.9,-51.4581"/>
<polygon fill="black" stroke="black" points="1178.38,-54.9298 1188.91,-53.8305 1179.99,-48.1185 1178.38,-54.9298"/>
<text text-anchor="middle" x="1093" y="-48.2983" font-family="Times,serif" font-size="14.00">15:&lt;eps&gt;/0.69315</text>
</g>
<!-- 13 -->
<g id="node14" class="node"><title>13</title>
<ellipse fill="none" stroke="black" cx="1502.49" cy="-58.4983" rx="19.4965" ry="19.4965"/>
<text text-anchor="middle" x="1502.49" y="-54.7983" font-family="Times,serif" font-size="14.00">13</text>
</g>
<!-- 11&#45;&gt;13 -->
<g id="edge19" class="edge"><title>11&#45;&gt;13</title>
<path fill="none" stroke="black" d="M1373.11,-58.4983C1398.16,-58.4983 1442.96,-58.4983 1472.45,-58.4983"/>
<polygon fill="black" stroke="black" points="1472.56,-61.9984 1482.56,-58.4983 1472.56,-54.9984 1472.56,-61.9984"/>
<text text-anchor="middle" x="1427.99" y="-62.2983" font-family="Times,serif" font-size="14.00">78:FLAMING</text>
</g>
<!-- 12&#45;&gt;11 -->
<g id="edge20" class="edge"><title>12&#45;&gt;11</title>
<path fill="none" stroke="black" d="M1227.76,-58.4983C1252.14,-58.4983 1294.98,-58.4983 1323.55,-58.4983"/>
<polygon fill="black" stroke="black" points="1323.73,-61.9984 1333.73,-58.4983 1323.73,-54.9984 1323.73,-61.9984"/>
<text text-anchor="middle" x="1296" y="-62.2983" font-family="Times,serif" font-size="14.00">1:&lt;eps&gt;</text>
</g>
<!-- 14 -->
<g id="node15" class="node"><title>14</title>
<ellipse fill="none" stroke="black" cx="1623.49" cy="-58.4983" rx="19.4965" ry="19.4965"/>
<text text-anchor="middle" x="1623.49" y="-54.7983" font-family="Times,serif" font-size="14.00">14</text>
</g>
<!-- 13&#45;&gt;14 -->
<g id="edge21" class="edge"><title>13&#45;&gt;14</title>
<path fill="none" stroke="black" d="M1522.08,-58.4983C1541.18,-58.4983 1571.18,-58.4983 1593.42,-58.4983"/>
<polygon fill="black" stroke="black" points="1593.63,-61.9984 1603.63,-58.4983 1593.63,-54.9984 1593.63,-61.9984"/>
<text text-anchor="middle" x="1562.99" y="-62.2983" font-family="Times,serif" font-size="14.00">55:&lt;eps&gt;</text>
</g>
<!-- 15 -->
<g id="node16" class="node"><title>15</title>
<ellipse fill="none" stroke="black" cx="1744.48" cy="-58.4983" rx="19.4965" ry="19.4965"/>
<text text-anchor="middle" x="1744.48" y="-54.7983" font-family="Times,serif" font-size="14.00">15</text>
</g>
<!-- 14&#45;&gt;15 -->
<g id="edge22" class="edge"><title>14&#45;&gt;15</title>
<path fill="none" stroke="black" d="M1643.08,-58.4983C1662.18,-58.4983 1692.18,-58.4983 1714.42,-58.4983"/>
<polygon fill="black" stroke="black" points="1714.63,-61.9984 1724.63,-58.4983 1714.63,-54.9984 1714.63,-61.9984"/>
<text text-anchor="middle" x="1683.99" y="-62.2983" font-family="Times,serif" font-size="14.00">23:&lt;eps&gt;</text>
</g>
<!-- 16 -->
<g id="node17" class="node"><title>16</title>
<ellipse fill="none" stroke="black" cx="1865.48" cy="-58.4983" rx="19.4965" ry="19.4965"/>
<text text-anchor="middle" x="1865.48" y="-54.7983" font-family="Times,serif" font-size="14.00">16</text>
</g>
<!-- 15&#45;&gt;16 -->
<g id="edge23" class="edge"><title>15&#45;&gt;16</title>
<path fill="none" stroke="black" d="M1764.08,-58.4983C1783.18,-58.4983 1813.18,-58.4983 1835.41,-58.4983"/>
<polygon fill="black" stroke="black" points="1835.63,-61.9984 1845.63,-58.4983 1835.63,-54.9984 1835.63,-61.9984"/>
<text text-anchor="middle" x="1804.98" y="-62.2983" font-family="Times,serif" font-size="14.00">44:&lt;eps&gt;</text>
</g>
<!-- 17 -->
<g id="node18" class="node"><title>17</title>
<ellipse fill="none" stroke="black" cx="1986.48" cy="-58.4983" rx="19.4965" ry="19.4965"/>
<text text-anchor="middle" x="1986.48" y="-54.7983" font-family="Times,serif" font-size="14.00">17</text>
</g>
<!-- 16&#45;&gt;17 -->
<g id="edge24" class="edge"><title>16&#45;&gt;17</title>
<path fill="none" stroke="black" d="M1885.07,-58.4983C1904.17,-58.4983 1934.17,-58.4983 1956.41,-58.4983"/>
<polygon fill="black" stroke="black" points="1956.62,-61.9984 1966.62,-58.4983 1956.62,-54.9984 1956.62,-61.9984"/>
<text text-anchor="middle" x="1925.98" y="-62.2983" font-family="Times,serif" font-size="14.00">42:&lt;eps&gt;</text>
</g>
<!-- 18 -->
<g id="node19" class="node"><title>18</title>
<ellipse fill="none" stroke="black" cx="2335.47" cy="-53.4983" rx="19.4968" ry="19.4968"/>
<ellipse fill="none" stroke="black" cx="2335.47" cy="-53.4983" rx="23.4965" ry="23.4965"/>
<text text-anchor="middle" x="2335.47" y="-49.7983" font-family="Times,serif" font-size="14.00">18</text>
</g>
<!-- 17&#45;&gt;18 -->
<g id="edge25" class="edge"><title>17&#45;&gt;18</title>
<path fill="none" stroke="black" d="M2006.02,-59.8889C2054.16,-63.2238 2187.02,-70.6731 2296.98,-60.4983 2298.7,-60.3388 2300.46,-60.1391 2302.23,-59.9088"/>
<polygon fill="black" stroke="black" points="2303.02,-63.3284 2312.36,-58.3259 2301.94,-56.4124 2303.02,-63.3284"/>
<text text-anchor="middle" x="2185.98" y="-69.2983" font-family="Times,serif" font-size="14.00">45:&lt;eps&gt;/0.69315</text>
</g>
<!-- 19 -->
<g id="node20" class="node"><title>19</title>
<ellipse fill="none" stroke="black" cx="2185.98" cy="-19.4983" rx="19.4965" ry="19.4965"/>
<text text-anchor="middle" x="2185.98" y="-15.7983" font-family="Times,serif" font-size="14.00">19</text>
</g>
<!-- 17&#45;&gt;19 -->
<g id="edge26" class="edge"><title>17&#45;&gt;19</title>
<path fill="none" stroke="black" d="M2004.63,-51.0348C2009.81,-49.003 2015.56,-46.9617 2020.98,-45.4983 2067.48,-32.9411 2123.16,-25.699 2156.21,-22.1836"/>
<polygon fill="black" stroke="black" points="2156.91,-25.63 2166.51,-21.1321 2156.2,-18.6663 2156.91,-25.63"/>
<text text-anchor="middle" x="2070.98" y="-49.2983" font-family="Times,serif" font-size="14.00">45:&lt;eps&gt;/0.69315</text>
</g>
<!-- 19&#45;&gt;18 -->
<g id="edge27" class="edge"><title>19&#45;&gt;18</title>
<path fill="none" stroke="black" d="M2205.06,-23.6673C2229.28,-29.2508 2272.66,-39.2492 2302.47,-46.1204"/>
<polygon fill="black" stroke="black" points="2301.86,-49.5724 2312.39,-48.4081 2303.43,-42.7513 2301.86,-49.5724"/>
<text text-anchor="middle" x="2273.98" y="-47.2983" font-family="Times,serif" font-size="14.00">1:&lt;eps&gt;</text>
</g>
</g>
</svg>
