<?xml version="1.0" encoding="UTF-8" standalone="no"?>
<!DOCTYPE svg PUBLIC "-//W3C//DTD SVG 1.1//EN"
 "http://www.w3.org/Graphics/SVG/1.1/DTD/svg11.dtd">
<!-- Generated by graphviz version 2.38.0 (20140413.2041)
 -->
<!-- Title: FST Pages: 1 -->
<svg width="612pt" height="80pt"
 viewBox="0.00 0.00 612.00 79.96" xmlns="http://www.w3.org/2000/svg" xmlns:xlink="http://www.w3.org/1999/xlink">
<g id="graph0" class="graph" transform="scale(0.360173 0.360173) rotate(0) translate(4 218)">
<title>FST</title>
<polygon fill="white" stroke="none" points="-4,4 -4,-218 1695.19,-218 1695.19,4 -4,4"/>
<!-- 0 -->
<g id="node1" class="node"><title>0</title>
<ellipse fill="none" stroke="black" stroke-width="2" cx="18" cy="-99" rx="18" ry="18"/>
<text text-anchor="middle" x="18" y="-95.3" font-family="Times,serif" font-size="14.00">0</text>
</g>
<!-- 1 -->
<g id="node2" class="node"><title>1</title>
<ellipse fill="none" stroke="black" cx="213.098" cy="-99" rx="22.1814" ry="22.1814"/>
<ellipse fill="none" stroke="black" cx="213.098" cy="-99" rx="26.1964" ry="26.1964"/>
<text text-anchor="middle" x="213.098" y="-95.3" font-family="Times,serif" font-size="14.00">1/0</text>
</g>
<!-- 0&#45;&gt;1 -->
<g id="edge1" class="edge"><title>0&#45;&gt;1</title>
<path fill="none" stroke="black" d="M36.1362,-99C67.5529,-99 134.964,-99 176.627,-99"/>
<polygon fill="black" stroke="black" points="176.882,-102.5 186.882,-99 176.882,-95.5001 176.882,-102.5"/>
<text text-anchor="middle" x="111.5" y="-102.8" font-family="Times,serif" font-size="14.00">&lt;eps&gt;:&lt;eps&gt;/0.69315</text>
</g>
<!-- 0&#45;&gt;1 -->
<g id="edge2" class="edge"><title>0&#45;&gt;1</title>
<path fill="none" stroke="black" d="M32.9086,-88.5392C38.2739,-85.1152 44.6448,-81.7445 51,-80 102.859,-65.7644 119.533,-68.1985 172,-80 174.818,-80.6339 177.671,-81.4899 180.489,-82.4891"/>
<polygon fill="black" stroke="black" points="179.246,-85.7623 189.826,-86.3244 181.905,-79.2873 179.246,-85.7623"/>
<text text-anchor="middle" x="111.5" y="-83.8" font-family="Times,serif" font-size="14.00">SIL:&lt;eps&gt;/0.69315</text>
</g>
<!-- 3 -->
<g id="node3" class="node"><title>3</title>
<ellipse fill="none" stroke="black" cx="423.196" cy="-145" rx="18" ry="18"/>
<text text-anchor="middle" x="423.196" y="-141.3" font-family="Times,serif" font-size="14.00">3</text>
</g>
<!-- 1&#45;&gt;3 -->
<g id="edge3" class="edge"><title>1&#45;&gt;3</title>
<path fill="none" stroke="black" d="M237.665,-107.878C243.051,-109.724 248.783,-111.548 254.196,-113 303.362,-126.188 362.024,-136.064 395.411,-141.149"/>
<polygon fill="black" stroke="black" points="394.912,-144.613 405.319,-142.63 395.946,-137.69 394.912,-144.613"/>
<text text-anchor="middle" x="322.196" y="-143.8" font-family="Times,serif" font-size="14.00">AH_B:ABANDON/0</text>
</g>
<!-- 9 -->
<g id="node4" class="node"><title>9</title>
<ellipse fill="none" stroke="black" cx="423.196" cy="-52" rx="18" ry="18"/>
<text text-anchor="middle" x="423.196" y="-48.3" font-family="Times,serif" font-size="14.00">9</text>
</g>
<!-- 1&#45;&gt;9 -->
<g id="edge4" class="edge"><title>1&#45;&gt;9</title>
<path fill="none" stroke="black" d="M233.297,-82.0308C239.563,-77.3738 246.817,-72.832 254.196,-70 301.148,-51.981 360.561,-50.0238 394.687,-50.6966"/>
<polygon fill="black" stroke="black" points="394.733,-54.1993 404.83,-50.9905 394.935,-47.2023 394.733,-54.1993"/>
<text text-anchor="middle" x="322.196" y="-73.8" font-family="Times,serif" font-size="14.00">AH_B:ABANDONED/0</text>
</g>
<!-- 4 -->
<g id="node6" class="node"><title>4</title>
<ellipse fill="none" stroke="black" cx="560.694" cy="-145" rx="18" ry="18"/>
<text text-anchor="middle" x="560.694" y="-141.3" font-family="Times,serif" font-size="14.00">4</text>
</g>
<!-- 3&#45;&gt;4 -->
<g id="edge6" class="edge"><title>3&#45;&gt;4</title>
<path fill="none" stroke="black" d="M441.357,-145C464.366,-145 505.463,-145 532.654,-145"/>
<polygon fill="black" stroke="black" points="532.673,-148.5 542.673,-145 532.673,-141.5 532.673,-148.5"/>
<text text-anchor="middle" x="491.196" y="-148.8" font-family="Times,serif" font-size="14.00">B_I:&lt;eps&gt;/0</text>
</g>
<!-- 10 -->
<g id="node11" class="node"><title>10</title>
<ellipse fill="none" stroke="black" cx="560.694" cy="-52" rx="19.4965" ry="19.4965"/>
<text text-anchor="middle" x="560.694" y="-48.3" font-family="Times,serif" font-size="14.00">10</text>
</g>
<!-- 9&#45;&gt;10 -->
<g id="edge13" class="edge"><title>9&#45;&gt;10</title>
<path fill="none" stroke="black" d="M441.357,-52C463.863,-52 503.675,-52 530.852,-52"/>
<polygon fill="black" stroke="black" points="530.936,-55.5001 540.936,-52 530.936,-48.5001 530.936,-55.5001"/>
<text text-anchor="middle" x="491.196" y="-55.8" font-family="Times,serif" font-size="14.00">B_I:&lt;eps&gt;/0</text>
</g>
<!-- 2 -->
<g id="node5" class="node"><title>2</title>
<ellipse fill="none" stroke="black" cx="1673.19" cy="-70" rx="18" ry="18"/>
<text text-anchor="middle" x="1673.19" y="-66.3" font-family="Times,serif" font-size="14.00">2</text>
</g>
<!-- 2&#45;&gt;1 -->
<g id="edge5" class="edge"><title>2&#45;&gt;1</title>
<path fill="none" stroke="black" d="M1657.17,-61.4166C1623,-42.7246 1536.37,-0 1458.19,-0 422.196,-0 422.196,-0 422.196,-0 344.662,-0 318.477,-3.64758 254.196,-47 246.006,-52.5237 238.766,-60.2662 232.771,-68.0924"/>
<polygon fill="black" stroke="black" points="229.721,-66.3412 226.769,-76.5165 235.422,-70.4031 229.721,-66.3412"/>
<text text-anchor="middle" x="978.193" y="-3.8" font-family="Times,serif" font-size="14.00">SIL:&lt;eps&gt;/0</text>
</g>
<!-- 5 -->
<g id="node7" class="node"><title>5</title>
<ellipse fill="none" stroke="black" cx="745.193" cy="-145" rx="18" ry="18"/>
<text text-anchor="middle" x="745.193" y="-141.3" font-family="Times,serif" font-size="14.00">5</text>
</g>
<!-- 4&#45;&gt;5 -->
<g id="edge7" class="edge"><title>4&#45;&gt;5</title>
<path fill="none" stroke="black" d="M578.863,-145C610.521,-145 678.339,-145 716.55,-145"/>
<polygon fill="black" stroke="black" points="716.936,-148.5 726.936,-145 716.936,-141.5 716.936,-148.5"/>
<text text-anchor="middle" x="634.693" y="-148.8" font-family="Times,serif" font-size="14.00">AE_I:&lt;eps&gt;/0</text>
</g>
<!-- 6 -->
<g id="node8" class="node"><title>6</title>
<ellipse fill="none" stroke="black" cx="978.193" cy="-145" rx="18" ry="18"/>
<text text-anchor="middle" x="978.193" y="-141.3" font-family="Times,serif" font-size="14.00">6</text>
</g>
<!-- 5&#45;&gt;6 -->
<g id="edge8" class="edge"><title>5&#45;&gt;6</title>
<path fill="none" stroke="black" d="M763.555,-145C803.368,-145 901.506,-145 949.654,-145"/>
<polygon fill="black" stroke="black" points="949.944,-148.5 959.944,-145 949.944,-141.5 949.944,-148.5"/>
<text text-anchor="middle" x="872.193" y="-148.8" font-family="Times,serif" font-size="14.00">N_I:&lt;eps&gt;/0</text>
</g>
<!-- 7 -->
<g id="node9" class="node"><title>7</title>
<ellipse fill="none" stroke="black" cx="1132.69" cy="-145" rx="18" ry="18"/>
<text text-anchor="middle" x="1132.69" y="-141.3" font-family="Times,serif" font-size="14.00">7</text>
</g>
<!-- 6&#45;&gt;7 -->
<g id="edge9" class="edge"><title>6&#45;&gt;7</title>
<path fill="none" stroke="black" d="M996.39,-145C1022.59,-145 1072.76,-145 1104.09,-145"/>
<polygon fill="black" stroke="black" points="1104.32,-148.5 1114.32,-145 1104.32,-141.5 1104.32,-148.5"/>
<text text-anchor="middle" x="1063.19" y="-148.8" font-family="Times,serif" font-size="14.00">D_I:&lt;eps&gt;/0</text>
</g>
<!-- 8 -->
<g id="node10" class="node"><title>8</title>
<ellipse fill="none" stroke="black" cx="1281.69" cy="-145" rx="18" ry="18"/>
<text text-anchor="middle" x="1281.69" y="-141.3" font-family="Times,serif" font-size="14.00">8</text>
</g>
<!-- 7&#45;&gt;8 -->
<g id="edge10" class="edge"><title>7&#45;&gt;8</title>
<path fill="none" stroke="black" d="M1150.84,-145C1176.07,-145 1223.43,-145 1253.45,-145"/>
<polygon fill="black" stroke="black" points="1253.65,-148.5 1263.65,-145 1253.65,-141.5 1253.65,-148.5"/>
<text text-anchor="middle" x="1207.19" y="-148.8" font-family="Times,serif" font-size="14.00">AH_I:&lt;eps&gt;/0</text>
</g>
<!-- 8&#45;&gt;1 -->
<g id="edge11" class="edge"><title>8&#45;&gt;1</title>
<path fill="none" stroke="black" d="M1265.9,-154.406C1240.12,-169.877 1184.8,-199 1133.69,-199 422.196,-199 422.196,-199 422.196,-199 345.442,-199 317.208,-202.825 254.196,-159 244.172,-152.029 235.97,-141.67 229.654,-131.513"/>
<polygon fill="black" stroke="black" points="232.617,-129.646 224.591,-122.73 226.553,-133.142 232.617,-129.646"/>
<text text-anchor="middle" x="745.193" y="-202.8" font-family="Times,serif" font-size="14.00">N_E:&lt;eps&gt;/0.69315</text>
</g>
<!-- 8&#45;&gt;2 -->
<g id="edge12" class="edge"><title>8&#45;&gt;2</title>
<path fill="none" stroke="black" d="M1300.01,-144.592C1352.71,-142.872 1515.17,-134.011 1640.19,-89 1643.19,-87.9186 1646.23,-86.547 1649.17,-85.0374"/>
<polygon fill="black" stroke="black" points="1651.16,-87.93 1658.11,-79.931 1647.69,-81.8516 1651.16,-87.93"/>
<text text-anchor="middle" x="1457.19" y="-140.8" font-family="Times,serif" font-size="14.00">N_E:&lt;eps&gt;/0.69315</text>
</g>
<!-- 11 -->
<g id="node12" class="node"><title>11</title>
<ellipse fill="none" stroke="black" cx="745.193" cy="-52" rx="19.4965" ry="19.4965"/>
<text text-anchor="middle" x="745.193" y="-48.3" font-family="Times,serif" font-size="14.00">11</text>
</g>
<!-- 10&#45;&gt;11 -->
<g id="edge14" class="edge"><title>10&#45;&gt;11</title>
<path fill="none" stroke="black" d="M580.198,-52C612.033,-52 677.394,-52 715.282,-52"/>
<polygon fill="black" stroke="black" points="715.64,-55.5001 725.64,-52 715.64,-48.5001 715.64,-55.5001"/>
<text text-anchor="middle" x="634.693" y="-55.8" font-family="Times,serif" font-size="14.00">AE_I:&lt;eps&gt;/0</text>
</g>
<!-- 12 -->
<g id="node13" class="node"><title>12</title>
<ellipse fill="none" stroke="black" cx="978.193" cy="-52" rx="19.4965" ry="19.4965"/>
<text text-anchor="middle" x="978.193" y="-48.3" font-family="Times,serif" font-size="14.00">12</text>
</g>
<!-- 11&#45;&gt;12 -->
<g id="edge15" class="edge"><title>11&#45;&gt;12</title>
<path fill="none" stroke="black" d="M764.706,-52C804.917,-52 900.48,-52 948.545,-52"/>
<polygon fill="black" stroke="black" points="948.591,-55.5001 958.591,-52 948.591,-48.5001 948.591,-55.5001"/>
<text text-anchor="middle" x="872.193" y="-55.8" font-family="Times,serif" font-size="14.00">N_I:&lt;eps&gt;/0</text>
</g>
<!-- 13 -->
<g id="node14" class="node"><title>13</title>
<ellipse fill="none" stroke="black" cx="1132.69" cy="-52" rx="19.4965" ry="19.4965"/>
<text text-anchor="middle" x="1132.69" y="-48.3" font-family="Times,serif" font-size="14.00">13</text>
</g>
<!-- 12&#45;&gt;13 -->
<g id="edge16" class="edge"><title>12&#45;&gt;13</title>
<path fill="none" stroke="black" d="M997.892,-52C1024.07,-52 1071.9,-52 1102.71,-52"/>
<polygon fill="black" stroke="black" points="1102.84,-55.5001 1112.84,-52 1102.84,-48.5001 1102.84,-55.5001"/>
<text text-anchor="middle" x="1063.19" y="-55.8" font-family="Times,serif" font-size="14.00">D_I:&lt;eps&gt;/0</text>
</g>
<!-- 14 -->
<g id="node15" class="node"><title>14</title>
<ellipse fill="none" stroke="black" cx="1281.69" cy="-52" rx="19.4965" ry="19.4965"/>
<text text-anchor="middle" x="1281.69" y="-48.3" font-family="Times,serif" font-size="14.00">14</text>
</g>
<!-- 13&#45;&gt;14 -->
<g id="edge17" class="edge"><title>13&#45;&gt;14</title>
<path fill="none" stroke="black" d="M1152.31,-52C1177.35,-52 1222.15,-52 1251.65,-52"/>
<polygon fill="black" stroke="black" points="1251.76,-55.5001 1261.76,-52 1251.76,-48.5001 1251.76,-55.5001"/>
<text text-anchor="middle" x="1207.19" y="-55.8" font-family="Times,serif" font-size="14.00">AH_I:&lt;eps&gt;/0</text>
</g>
<!-- 15 -->
<g id="node16" class="node"><title>15</title>
<ellipse fill="none" stroke="black" cx="1457.19" cy="-70" rx="19.4965" ry="19.4965"/>
<text text-anchor="middle" x="1457.19" y="-66.3" font-family="Times,serif" font-size="14.00">15</text>
</g>
<!-- 14&#45;&gt;15 -->
<g id="edge18" class="edge"><title>14&#45;&gt;15</title>
<path fill="none" stroke="black" d="M1301.25,-53.9263C1331.52,-57.066 1391.69,-63.3084 1427.48,-67.0223"/>
<polygon fill="black" stroke="black" points="1427.44,-70.5368 1437.75,-68.0875 1428.17,-63.5742 1427.44,-70.5368"/>
<text text-anchor="middle" x="1351.19" y="-66.8" font-family="Times,serif" font-size="14.00">N_I:&lt;eps&gt;/0</text>
</g>
<!-- 15&#45;&gt;1 -->
<g id="edge19" class="edge"><title>15&#45;&gt;1</title>
<path fill="none" stroke="black" d="M1438.12,-75.0514C1406.76,-83.3601 1340.1,-99 1282.69,-99 422.196,-99 422.196,-99 422.196,-99 361.542,-99 290.944,-99 249.53,-99"/>
<polygon fill="black" stroke="black" points="249.405,-95.5001 239.405,-99 249.404,-102.5 249.405,-95.5001"/>
<text text-anchor="middle" x="872.193" y="-102.8" font-family="Times,serif" font-size="14.00">D_E:&lt;eps&gt;/0.69315</text>
</g>
<!-- 15&#45;&gt;2 -->
<g id="edge20" class="edge"><title>15&#45;&gt;2</title>
<path fill="none" stroke="black" d="M1476.8,-70C1514.66,-70 1600.77,-70 1644.94,-70"/>
<polygon fill="black" stroke="black" points="1644.96,-73.5001 1654.96,-70 1644.96,-66.5001 1644.96,-73.5001"/>
<text text-anchor="middle" x="1584.19" y="-73.8" font-family="Times,serif" font-size="14.00">D_E:&lt;eps&gt;/0.69315</text>
</g>
</g>
</svg>
