<?xml version="1.0" encoding="UTF-8" standalone="no"?>
<!DOCTYPE svg PUBLIC "-//W3C//DTD SVG 1.1//EN"
 "http://www.w3.org/Graphics/SVG/1.1/DTD/svg11.dtd">
<!-- Generated by graphviz version 2.38.0 (20140413.2041)
 -->
<!-- Title: FST Pages: 1 -->
<svg width="612pt" height="84pt"
 viewBox="0.00 0.00 612.00 84.02" xmlns="http://www.w3.org/2000/svg" xmlns:xlink="http://www.w3.org/1999/xlink">
<g id="graph0" class="graph" transform="scale(0.378481 0.378481) rotate(0) translate(4 218)">
<title>FST</title>
<polygon fill="white" stroke="none" points="-4,4 -4,-218 1612.99,-218 1612.99,4 -4,4"/>
<!-- 0 -->
<g id="node1" class="node"><title>0</title>
<ellipse fill="none" stroke="black" stroke-width="2" cx="18" cy="-99" rx="18" ry="18"/>
<text text-anchor="middle" x="18" y="-95.3" font-family="Times,serif" font-size="14.00">0</text>
</g>
<!-- 1 -->
<g id="node2" class="node"><title>1</title>
<ellipse fill="none" stroke="black" cx="209" cy="-99" rx="18" ry="18"/>
<ellipse fill="none" stroke="black" cx="209" cy="-99" rx="22" ry="22"/>
<text text-anchor="middle" x="209" y="-95.3" font-family="Times,serif" font-size="14.00">1</text>
</g>
<!-- 0&#45;&gt;1 -->
<g id="edge1" class="edge"><title>0&#45;&gt;1</title>
<path fill="none" stroke="black" d="M36.1058,-99C67.8863,-99 136.458,-99 176.728,-99"/>
<polygon fill="black" stroke="black" points="176.799,-102.5 186.799,-99 176.799,-95.5001 176.799,-102.5"/>
<text text-anchor="middle" x="111.5" y="-102.8" font-family="Times,serif" font-size="14.00">&lt;eps&gt;:&lt;eps&gt;/0.69315</text>
</g>
<!-- 0&#45;&gt;1 -->
<g id="edge2" class="edge"><title>0&#45;&gt;1</title>
<path fill="none" stroke="black" d="M32.9086,-88.5392C38.2739,-85.1152 44.6448,-81.7445 51,-80 102.859,-65.7644 119.8,-67.0701 172,-80 174.99,-80.7407 178.006,-81.7801 180.952,-82.995"/>
<polygon fill="black" stroke="black" points="179.476,-86.1685 190.008,-87.3228 182.494,-79.8528 179.476,-86.1685"/>
<text text-anchor="middle" x="111.5" y="-83.8" font-family="Times,serif" font-size="14.00">SIL:&lt;eps&gt;/0.69315</text>
</g>
<!-- 3 -->
<g id="node3" class="node"><title>3</title>
<ellipse fill="none" stroke="black" cx="404" cy="-145" rx="18" ry="18"/>
<text text-anchor="middle" x="404" y="-141.3" font-family="Times,serif" font-size="14.00">3</text>
</g>
<!-- 1&#45;&gt;3 -->
<g id="edge3" class="edge"><title>1&#45;&gt;3</title>
<path fill="none" stroke="black" d="M229.597,-107.315C234.862,-109.357 240.596,-111.411 246,-113 290.642,-126.127 343.977,-135.762 375.584,-140.863"/>
<polygon fill="black" stroke="black" points="375.385,-144.375 385.808,-142.477 376.476,-137.461 375.385,-144.375"/>
<text text-anchor="middle" x="308.5" y="-143.8" font-family="Times,serif" font-size="14.00">AH_B:ABANDON</text>
</g>
<!-- 9 -->
<g id="node4" class="node"><title>9</title>
<ellipse fill="none" stroke="black" cx="404" cy="-52" rx="18" ry="18"/>
<text text-anchor="middle" x="404" y="-48.3" font-family="Times,serif" font-size="14.00">9</text>
</g>
<!-- 1&#45;&gt;9 -->
<g id="edge4" class="edge"><title>1&#45;&gt;9</title>
<path fill="none" stroke="black" d="M225.21,-83.572C231.199,-78.4041 238.448,-73.1587 246,-70 288.752,-52.1193 343.435,-49.9978 375.694,-50.6239"/>
<polygon fill="black" stroke="black" points="375.625,-54.1233 385.725,-50.9227 375.834,-47.1264 375.625,-54.1233"/>
<text text-anchor="middle" x="308.5" y="-73.8" font-family="Times,serif" font-size="14.00">AH_B:ABANDONED</text>
</g>
<!-- 4 -->
<g id="node6" class="node"><title>4</title>
<ellipse fill="none" stroke="black" cx="530.498" cy="-145" rx="18" ry="18"/>
<text text-anchor="middle" x="530.498" y="-141.3" font-family="Times,serif" font-size="14.00">4</text>
</g>
<!-- 3&#45;&gt;4 -->
<g id="edge6" class="edge"><title>3&#45;&gt;4</title>
<path fill="none" stroke="black" d="M422.05,-145C442.702,-145 477.754,-145 502.187,-145"/>
<polygon fill="black" stroke="black" points="502.255,-148.5 512.255,-145 502.255,-141.5 502.255,-148.5"/>
<text text-anchor="middle" x="466.5" y="-148.8" font-family="Times,serif" font-size="14.00">B_I:&lt;eps&gt;</text>
</g>
<!-- 10 -->
<g id="node11" class="node"><title>10</title>
<ellipse fill="none" stroke="black" cx="530.498" cy="-52" rx="19.4965" ry="19.4965"/>
<text text-anchor="middle" x="530.498" y="-48.3" font-family="Times,serif" font-size="14.00">10</text>
</g>
<!-- 9&#45;&gt;10 -->
<g id="edge13" class="edge"><title>9&#45;&gt;10</title>
<path fill="none" stroke="black" d="M422.05,-52C442.238,-52 476.186,-52 500.524,-52"/>
<polygon fill="black" stroke="black" points="500.621,-55.5001 510.621,-52 500.621,-48.5001 500.621,-55.5001"/>
<text text-anchor="middle" x="466.5" y="-55.8" font-family="Times,serif" font-size="14.00">B_I:&lt;eps&gt;</text>
</g>
<!-- 2 -->
<g id="node5" class="node"><title>2</title>
<ellipse fill="none" stroke="black" cx="1590.99" cy="-70" rx="18" ry="18"/>
<text text-anchor="middle" x="1590.99" y="-66.3" font-family="Times,serif" font-size="14.00">2</text>
</g>
<!-- 2&#45;&gt;1 -->
<g id="edge5" class="edge"><title>2&#45;&gt;1</title>
<path fill="none" stroke="black" d="M1574.97,-61.4166C1540.81,-42.7246 1454.17,-0 1375.99,-0 403,-0 403,-0 403,-0 330.163,-0 304.938,-4.20238 246,-47 237.494,-53.177 230.314,-62.0069 224.66,-70.6415"/>
<polygon fill="black" stroke="black" points="221.512,-69.0825 219.327,-79.4495 227.5,-72.708 221.512,-69.0825"/>
<text text-anchor="middle" x="931.497" y="-3.8" font-family="Times,serif" font-size="14.00">SIL:&lt;eps&gt;</text>
</g>
<!-- 5 -->
<g id="node7" class="node"><title>5</title>
<ellipse fill="none" stroke="black" cx="703.997" cy="-145" rx="18" ry="18"/>
<text text-anchor="middle" x="703.997" y="-141.3" font-family="Times,serif" font-size="14.00">5</text>
</g>
<!-- 4&#45;&gt;5 -->
<g id="edge7" class="edge"><title>4&#45;&gt;5</title>
<path fill="none" stroke="black" d="M548.569,-145C578.36,-145 640.068,-145 675.803,-145"/>
<polygon fill="black" stroke="black" points="675.995,-148.5 685.995,-145 675.995,-141.5 675.995,-148.5"/>
<text text-anchor="middle" x="598.997" y="-148.8" font-family="Times,serif" font-size="14.00">AE_I:&lt;eps&gt;</text>
</g>
<!-- 6 -->
<g id="node8" class="node"><title>6</title>
<ellipse fill="none" stroke="black" cx="931.497" cy="-145" rx="18" ry="18"/>
<text text-anchor="middle" x="931.497" y="-141.3" font-family="Times,serif" font-size="14.00">6</text>
</g>
<!-- 5&#45;&gt;6 -->
<g id="edge8" class="edge"><title>5&#45;&gt;6</title>
<path fill="none" stroke="black" d="M722.317,-145C761.354,-145 856.452,-145 903.385,-145"/>
<polygon fill="black" stroke="black" points="903.426,-148.5 913.426,-145 903.426,-141.5 903.426,-148.5"/>
<text text-anchor="middle" x="830.997" y="-148.8" font-family="Times,serif" font-size="14.00">N_I:&lt;eps&gt;</text>
</g>
<!-- 7 -->
<g id="node9" class="node"><title>7</title>
<ellipse fill="none" stroke="black" cx="1070.49" cy="-145" rx="18" ry="18"/>
<text text-anchor="middle" x="1070.49" y="-141.3" font-family="Times,serif" font-size="14.00">7</text>
</g>
<!-- 6&#45;&gt;7 -->
<g id="edge9" class="edge"><title>6&#45;&gt;7</title>
<path fill="none" stroke="black" d="M949.57,-145C972.746,-145 1014.43,-145 1042.03,-145"/>
<polygon fill="black" stroke="black" points="1042.21,-148.5 1052.21,-145 1042.21,-141.5 1042.21,-148.5"/>
<text text-anchor="middle" x="1006" y="-148.8" font-family="Times,serif" font-size="14.00">D_I:&lt;eps&gt;</text>
</g>
<!-- 8 -->
<g id="node10" class="node"><title>8</title>
<ellipse fill="none" stroke="black" cx="1209.49" cy="-145" rx="18" ry="18"/>
<text text-anchor="middle" x="1209.49" y="-141.3" font-family="Times,serif" font-size="14.00">8</text>
</g>
<!-- 7&#45;&gt;8 -->
<g id="edge10" class="edge"><title>7&#45;&gt;8</title>
<path fill="none" stroke="black" d="M1088.57,-145C1111.74,-145 1153.43,-145 1181.03,-145"/>
<polygon fill="black" stroke="black" points="1181.2,-148.5 1191.2,-145 1181.2,-141.5 1181.2,-148.5"/>
<text text-anchor="middle" x="1139.99" y="-148.8" font-family="Times,serif" font-size="14.00">AH_I:&lt;eps&gt;</text>
</g>
<!-- 8&#45;&gt;1 -->
<g id="edge11" class="edge"><title>8&#45;&gt;1</title>
<path fill="none" stroke="black" d="M1194.03,-154.904C1169.82,-170.494 1119.05,-199 1071.49,-199 403,-199 403,-199 403,-199 330.993,-199 303.76,-201.998 246,-159 235.571,-151.236 227.569,-139.476 221.789,-128.419"/>
<polygon fill="black" stroke="black" points="224.939,-126.894 217.451,-119.399 218.631,-129.928 224.939,-126.894"/>
<text text-anchor="middle" x="703.997" y="-202.8" font-family="Times,serif" font-size="14.00">N_E:&lt;eps&gt;/0.69315</text>
</g>
<!-- 8&#45;&gt;2 -->
<g id="edge12" class="edge"><title>8&#45;&gt;2</title>
<path fill="none" stroke="black" d="M1227.69,-144.491C1279.31,-142.492 1436.77,-132.945 1557.99,-89 1560.99,-87.912 1564.03,-86.5363 1566.97,-85.0245"/>
<polygon fill="black" stroke="black" points="1568.96,-87.9166 1575.91,-79.9163 1565.49,-81.8389 1568.96,-87.9166"/>
<text text-anchor="middle" x="1374.99" y="-140.8" font-family="Times,serif" font-size="14.00">N_E:&lt;eps&gt;/0.69315</text>
</g>
<!-- 11 -->
<g id="node12" class="node"><title>11</title>
<ellipse fill="none" stroke="black" cx="703.997" cy="-52" rx="19.4965" ry="19.4965"/>
<text text-anchor="middle" x="703.997" y="-48.3" font-family="Times,serif" font-size="14.00">11</text>
</g>
<!-- 10&#45;&gt;11 -->
<g id="edge14" class="edge"><title>10&#45;&gt;11</title>
<path fill="none" stroke="black" d="M550.178,-52C580.075,-52 638.889,-52 674.195,-52"/>
<polygon fill="black" stroke="black" points="674.34,-55.5001 684.34,-52 674.34,-48.5001 674.34,-55.5001"/>
<text text-anchor="middle" x="598.997" y="-55.8" font-family="Times,serif" font-size="14.00">AE_I:&lt;eps&gt;</text>
</g>
<!-- 12 -->
<g id="node13" class="node"><title>12</title>
<ellipse fill="none" stroke="black" cx="931.497" cy="-52" rx="19.4965" ry="19.4965"/>
<text text-anchor="middle" x="931.497" y="-48.3" font-family="Times,serif" font-size="14.00">12</text>
</g>
<!-- 11&#45;&gt;12 -->
<g id="edge15" class="edge"><title>11&#45;&gt;12</title>
<path fill="none" stroke="black" d="M723.835,-52C763.312,-52 854.93,-52 901.783,-52"/>
<polygon fill="black" stroke="black" points="901.871,-55.5001 911.871,-52 901.871,-48.5001 901.871,-55.5001"/>
<text text-anchor="middle" x="830.997" y="-55.8" font-family="Times,serif" font-size="14.00">N_I:&lt;eps&gt;</text>
</g>
<!-- 13 -->
<g id="node14" class="node"><title>13</title>
<ellipse fill="none" stroke="black" cx="1070.49" cy="-52" rx="19.4965" ry="19.4965"/>
<text text-anchor="middle" x="1070.49" y="-48.3" font-family="Times,serif" font-size="14.00">13</text>
</g>
<!-- 12&#45;&gt;13 -->
<g id="edge16" class="edge"><title>12&#45;&gt;13</title>
<path fill="none" stroke="black" d="M951.258,-52C974.316,-52 1013.69,-52 1040.61,-52"/>
<polygon fill="black" stroke="black" points="1040.96,-55.5001 1050.96,-52 1040.96,-48.5001 1040.96,-55.5001"/>
<text text-anchor="middle" x="1006" y="-55.8" font-family="Times,serif" font-size="14.00">D_I:&lt;eps&gt;</text>
</g>
<!-- 14 -->
<g id="node15" class="node"><title>14</title>
<ellipse fill="none" stroke="black" cx="1209.49" cy="-52" rx="19.4965" ry="19.4965"/>
<text text-anchor="middle" x="1209.49" y="-48.3" font-family="Times,serif" font-size="14.00">14</text>
</g>
<!-- 13&#45;&gt;14 -->
<g id="edge17" class="edge"><title>13&#45;&gt;14</title>
<path fill="none" stroke="black" d="M1090.26,-52C1113.31,-52 1152.69,-52 1179.61,-52"/>
<polygon fill="black" stroke="black" points="1179.96,-55.5001 1189.96,-52 1179.96,-48.5001 1179.96,-55.5001"/>
<text text-anchor="middle" x="1139.99" y="-55.8" font-family="Times,serif" font-size="14.00">AH_I:&lt;eps&gt;</text>
</g>
<!-- 15 -->
<g id="node16" class="node"><title>15</title>
<ellipse fill="none" stroke="black" cx="1374.99" cy="-70" rx="19.4965" ry="19.4965"/>
<text text-anchor="middle" x="1374.99" y="-66.3" font-family="Times,serif" font-size="14.00">15</text>
</g>
<!-- 14&#45;&gt;15 -->
<g id="edge18" class="edge"><title>14&#45;&gt;15</title>
<path fill="none" stroke="black" d="M1228.93,-54.0298C1257.26,-57.1493 1311.74,-63.1472 1345.28,-66.839"/>
<polygon fill="black" stroke="black" points="1345.05,-70.3345 1355.37,-67.95 1345.81,-63.3766 1345.05,-70.3345"/>
<text text-anchor="middle" x="1273.99" y="-66.8" font-family="Times,serif" font-size="14.00">N_I:&lt;eps&gt;</text>
</g>
<!-- 15&#45;&gt;1 -->
<g id="edge19" class="edge"><title>15&#45;&gt;1</title>
<path fill="none" stroke="black" d="M1356.03,-75.319C1326.12,-83.6911 1264.11,-99 1210.49,-99 403,-99 403,-99 403,-99 346.124,-99 279.82,-99 241.596,-99"/>
<polygon fill="black" stroke="black" points="241.134,-95.5001 231.133,-99 241.133,-102.5 241.134,-95.5001"/>
<text text-anchor="middle" x="830.997" y="-102.8" font-family="Times,serif" font-size="14.00">D_E:&lt;eps&gt;/0.69315</text>
</g>
<!-- 15&#45;&gt;2 -->
<g id="edge20" class="edge"><title>15&#45;&gt;2</title>
<path fill="none" stroke="black" d="M1394.61,-70C1432.47,-70 1518.58,-70 1562.75,-70"/>
<polygon fill="black" stroke="black" points="1562.77,-73.5001 1572.77,-70 1562.77,-66.5001 1562.77,-73.5001"/>
<text text-anchor="middle" x="1501.99" y="-73.8" font-family="Times,serif" font-size="14.00">D_E:&lt;eps&gt;/0.69315</text>
</g>
</g>
</svg>
