<?xml version="1.0" encoding="UTF-8" standalone="no"?>
<!DOCTYPE svg PUBLIC "-//W3C//DTD SVG 1.1//EN"
 "http://www.w3.org/Graphics/SVG/1.1/DTD/svg11.dtd">
<!-- Generated by graphviz version 2.38.0 (20140413.2041)
 -->
<!-- Title: FST Pages: 1 -->
<svg width="612pt" height="722pt"
 viewBox="0.00 0.00 612.00 721.66" xmlns="http://www.w3.org/2000/svg" xmlns:xlink="http://www.w3.org/1999/xlink">
<g id="graph0" class="graph" transform="scale(0.974555 0.974555) rotate(0) translate(4 736.498)">
<title>FST</title>
<polygon fill="white" stroke="none" points="-4,4 -4,-736.498 623.979,-736.498 623.979,4 -4,4"/>
<!-- 0 -->
<g id="node1" class="node"><title>0</title>
<ellipse fill="none" stroke="black" stroke-width="2" cx="22" cy="-191.498" rx="18" ry="18"/>
<ellipse fill="none" stroke="black" stroke-width="2" cx="22" cy="-191.498" rx="22" ry="22"/>
<text text-anchor="middle" x="22" y="-187.798" font-family="Times,serif" font-size="14.00">0</text>
</g>
<!-- 1 -->
<g id="node2" class="node"><title>1</title>
<ellipse fill="none" stroke="black" cx="118.498" cy="-681.498" rx="18" ry="18"/>
<text text-anchor="middle" x="118.498" y="-677.798" font-family="Times,serif" font-size="14.00">1</text>
</g>
<!-- 0&#45;&gt;1 -->
<g id="edge1" class="edge"><title>0&#45;&gt;1</title>
<path fill="none" stroke="black" d="M24.3678,-213.696C27.716,-263.371 37.6567,-387.1 59,-488.498 71.7883,-549.254 94.9285,-618.445 107.943,-655.233"/>
<polygon fill="black" stroke="black" points="104.67,-656.475 111.329,-664.716 111.263,-654.122 104.67,-656.475"/>
<text text-anchor="middle" x="71.5" y="-588.298" font-family="Times,serif" font-size="14.00">0:1</text>
</g>
<!-- 7 -->
<g id="node3" class="node"><title>7</title>
<ellipse fill="none" stroke="black" cx="118.498" cy="-256.498" rx="18" ry="18"/>
<text text-anchor="middle" x="118.498" y="-252.798" font-family="Times,serif" font-size="14.00">7</text>
</g>
<!-- 0&#45;&gt;7 -->
<g id="edge2" class="edge"><title>0&#45;&gt;7</title>
<path fill="none" stroke="black" d="M40.7744,-203.724C56.0218,-214.212 78.0875,-229.39 94.6452,-240.779"/>
<polygon fill="black" stroke="black" points="92.9763,-243.879 103.199,-246.663 96.9434,-238.112 92.9763,-243.879"/>
<text text-anchor="middle" x="71.5" y="-238.298" font-family="Times,serif" font-size="14.00">0:2</text>
</g>
<!-- 13 -->
<g id="node4" class="node"><title>13</title>
<ellipse fill="none" stroke="black" cx="118.498" cy="-166.498" rx="19.4965" ry="19.4965"/>
<text text-anchor="middle" x="118.498" y="-162.798" font-family="Times,serif" font-size="14.00">13</text>
</g>
<!-- 0&#45;&gt;13 -->
<g id="edge3" class="edge"><title>0&#45;&gt;13</title>
<path fill="none" stroke="black" d="M43.5047,-186.074C57.0889,-182.48 75.0708,-177.723 89.9062,-173.798"/>
<polygon fill="black" stroke="black" points="90.8092,-177.179 99.5815,-171.238 89.0189,-170.412 90.8092,-177.179"/>
<text text-anchor="middle" x="71.5" y="-186.298" font-family="Times,serif" font-size="14.00">92:3</text>
</g>
<!-- 16 -->
<g id="node5" class="node"><title>16</title>
<ellipse fill="none" stroke="black" cx="118.498" cy="-19.4983" rx="19.4965" ry="19.4965"/>
<text text-anchor="middle" x="118.498" y="-15.7983" font-family="Times,serif" font-size="14.00">16</text>
</g>
<!-- 0&#45;&gt;16 -->
<g id="edge4" class="edge"><title>0&#45;&gt;16</title>
<path fill="none" stroke="black" d="M25.4321,-169.572C30.0515,-131.763 41.2485,-56.5163 59,-37.4983 66.7473,-29.1982 78.2185,-24.691 88.9553,-22.2565"/>
<polygon fill="black" stroke="black" points="89.6413,-25.6896 98.8788,-20.5012 88.422,-18.7966 89.6413,-25.6896"/>
<text text-anchor="middle" x="71.5" y="-41.2983" font-family="Times,serif" font-size="14.00">98:4</text>
</g>
<!-- 2 -->
<g id="node6" class="node"><title>2</title>
<ellipse fill="none" stroke="black" cx="218.495" cy="-631.498" rx="18" ry="18"/>
<text text-anchor="middle" x="218.495" y="-627.798" font-family="Times,serif" font-size="14.00">2</text>
</g>
<!-- 1&#45;&gt;2 -->
<g id="edge5" class="edge"><title>1&#45;&gt;2</title>
<path fill="none" stroke="black" d="M134.81,-673.686C150.396,-665.734 174.795,-653.284 193.056,-643.967"/>
<polygon fill="black" stroke="black" points="194.65,-647.083 201.967,-639.421 191.469,-640.848 194.65,-647.083"/>
<text text-anchor="middle" x="168.497" y="-667.298" font-family="Times,serif" font-size="14.00">2:0</text>
</g>
<!-- 3 -->
<g id="node7" class="node"><title>3</title>
<ellipse fill="none" stroke="black" cx="318.491" cy="-685.498" rx="18" ry="18"/>
<text text-anchor="middle" x="318.491" y="-681.798" font-family="Times,serif" font-size="14.00">3</text>
</g>
<!-- 1&#45;&gt;3 -->
<g id="edge6" class="edge"><title>1&#45;&gt;3</title>
<path fill="none" stroke="black" d="M136.388,-685.482C166.277,-691.966 230.392,-703.328 283.993,-695.498 286.515,-695.13 289.112,-694.613 291.69,-694.007"/>
<polygon fill="black" stroke="black" points="292.636,-697.376 301.348,-691.347 290.778,-690.628 292.636,-697.376"/>
<text text-anchor="middle" x="218.495" y="-701.298" font-family="Times,serif" font-size="14.00">3:0</text>
</g>
<!-- 4 -->
<g id="node8" class="node"><title>4</title>
<ellipse fill="none" stroke="black" cx="412.488" cy="-631.498" rx="18" ry="18"/>
<text text-anchor="middle" x="412.488" y="-627.798" font-family="Times,serif" font-size="14.00">4</text>
</g>
<!-- 1&#45;&gt;4 -->
<g id="edge7" class="edge"><title>1&#45;&gt;4</title>
<path fill="none" stroke="black" d="M133.192,-692.498C139.021,-696.745 146.066,-701.333 152.997,-704.498 172.216,-713.276 178.04,-713.81 198.997,-716.498 230.105,-720.489 320.89,-716.714 337.99,-712.498 357.099,-707.787 364.674,-707.992 377.99,-693.498 390.835,-679.516 383.408,-669.89 392.99,-653.498 393.16,-653.207 393.333,-652.917 393.511,-652.626"/>
<polygon fill="black" stroke="black" points="396.39,-654.617 399.366,-644.449 390.699,-650.542 396.39,-654.617"/>
<text text-anchor="middle" x="268.493" y="-721.298" font-family="Times,serif" font-size="14.00">4:0</text>
</g>
<!-- 8 -->
<g id="node11" class="node"><title>8</title>
<ellipse fill="none" stroke="black" cx="218.495" cy="-274.498" rx="18" ry="18"/>
<text text-anchor="middle" x="218.495" y="-270.798" font-family="Times,serif" font-size="14.00">8</text>
</g>
<!-- 7&#45;&gt;8 -->
<g id="edge19" class="edge"><title>7&#45;&gt;8</title>
<path fill="none" stroke="black" d="M136.568,-259.634C151.463,-262.37 173.331,-266.386 190.581,-269.555"/>
<polygon fill="black" stroke="black" points="190.153,-273.035 200.621,-271.399 191.418,-266.15 190.153,-273.035"/>
<text text-anchor="middle" x="168.497" y="-272.298" font-family="Times,serif" font-size="14.00">20:0</text>
</g>
<!-- 9 -->
<g id="node12" class="node"><title>9</title>
<ellipse fill="none" stroke="black" cx="318.491" cy="-353.498" rx="18" ry="18"/>
<text text-anchor="middle" x="318.491" y="-349.798" font-family="Times,serif" font-size="14.00">9</text>
</g>
<!-- 7&#45;&gt;9 -->
<g id="edge20" class="edge"><title>7&#45;&gt;9</title>
<path fill="none" stroke="black" d="M130.522,-270.302C151.31,-295.062 199.091,-346.15 252.993,-364.498 265.469,-368.745 279.883,-366.883 291.917,-363.578"/>
<polygon fill="black" stroke="black" points="293.317,-366.805 301.771,-360.418 291.18,-360.139 293.317,-366.805"/>
<text text-anchor="middle" x="218.495" y="-363.298" font-family="Times,serif" font-size="14.00">21:0</text>
</g>
<!-- 10 -->
<g id="node13" class="node"><title>10</title>
<ellipse fill="none" stroke="black" cx="412.488" cy="-298.498" rx="19.4965" ry="19.4965"/>
<text text-anchor="middle" x="412.488" y="-294.798" font-family="Times,serif" font-size="14.00">10</text>
</g>
<!-- 7&#45;&gt;10 -->
<g id="edge21" class="edge"><title>7&#45;&gt;10</title>
<path fill="none" stroke="black" d="M132.974,-245.255C174.312,-212.17 301.171,-121.271 377.99,-183.498 402.985,-203.746 410.004,-241.513 411.645,-268.234"/>
<polygon fill="black" stroke="black" points="408.162,-268.72 412.05,-278.575 415.156,-268.446 408.162,-268.72"/>
<text text-anchor="middle" x="268.493" y="-178.298" font-family="Times,serif" font-size="14.00">22:0</text>
</g>
<!-- 14 -->
<g id="node16" class="node"><title>14</title>
<ellipse fill="none" stroke="black" cx="218.495" cy="-151.498" rx="19.4965" ry="19.4965"/>
<text text-anchor="middle" x="218.495" y="-147.798" font-family="Times,serif" font-size="14.00">14</text>
</g>
<!-- 13&#45;&gt;14 -->
<g id="edge33" class="edge"><title>13&#45;&gt;14</title>
<path fill="none" stroke="black" d="M137.931,-163.677C152.303,-161.477 172.516,-158.383 188.973,-155.864"/>
<polygon fill="black" stroke="black" points="189.79,-159.28 199.145,-154.307 188.731,-152.36 189.79,-159.28"/>
<text text-anchor="middle" x="168.497" y="-165.298" font-family="Times,serif" font-size="14.00">94:0</text>
</g>
<!-- 17 -->
<g id="node18" class="node"><title>17</title>
<ellipse fill="none" stroke="black" cx="218.495" cy="-19.4983" rx="19.4965" ry="19.4965"/>
<text text-anchor="middle" x="218.495" y="-15.7983" font-family="Times,serif" font-size="14.00">17</text>
</g>
<!-- 16&#45;&gt;17 -->
<g id="edge36" class="edge"><title>16&#45;&gt;17</title>
<path fill="none" stroke="black" d="M138.393,-19.4983C152.719,-19.4983 172.651,-19.4983 188.922,-19.4983"/>
<polygon fill="black" stroke="black" points="188.99,-22.9984 198.99,-19.4983 188.99,-15.9984 188.99,-22.9984"/>
<text text-anchor="middle" x="168.497" y="-23.2983" font-family="Times,serif" font-size="14.00">100:0</text>
</g>
<!-- 2&#45;&gt;3 -->
<g id="edge8" class="edge"><title>2&#45;&gt;3</title>
<path fill="none" stroke="black" d="M230.827,-644.756C236.867,-651.145 244.743,-658.49 252.993,-663.498 264.57,-670.526 278.689,-675.668 290.763,-679.205"/>
<polygon fill="black" stroke="black" points="290.163,-682.669 300.731,-681.907 291.995,-675.913 290.163,-682.669"/>
<text text-anchor="middle" x="268.493" y="-680.298" font-family="Times,serif" font-size="14.00">6:0</text>
</g>
<!-- 2&#45;&gt;4 -->
<g id="edge9" class="edge"><title>2&#45;&gt;4</title>
<path fill="none" stroke="black" d="M236.527,-630.284C241.802,-629.961 247.636,-629.658 252.993,-629.498 299.005,-628.126 352.558,-629.401 384.152,-630.45"/>
<polygon fill="black" stroke="black" points="384.246,-633.955 394.362,-630.806 384.491,-626.959 384.246,-633.955"/>
<text text-anchor="middle" x="318.491" y="-632.298" font-family="Times,serif" font-size="14.00">7:0</text>
</g>
<!-- 5 -->
<g id="node9" class="node"><title>5</title>
<ellipse fill="none" stroke="black" cx="506.484" cy="-555.498" rx="18" ry="18"/>
<text text-anchor="middle" x="506.484" y="-551.798" font-family="Times,serif" font-size="14.00">5</text>
</g>
<!-- 2&#45;&gt;5 -->
<g id="edge10" class="edge"><title>2&#45;&gt;5</title>
<path fill="none" stroke="black" d="M232.718,-620.061C238.584,-615.527 245.783,-610.652 252.993,-607.498 330.405,-573.632 430.961,-561.436 478.422,-557.366"/>
<polygon fill="black" stroke="black" points="478.823,-560.845 488.511,-556.556 478.263,-553.868 478.823,-560.845"/>
<text text-anchor="middle" x="365.49" y="-580.298" font-family="Times,serif" font-size="14.00">8:0</text>
</g>
<!-- 3&#45;&gt;2 -->
<g id="edge11" class="edge"><title>3&#45;&gt;2</title>
<path fill="none" stroke="black" d="M308.573,-669.961C302.706,-661.142 294.228,-650.666 283.993,-644.498 272.794,-637.75 258.714,-634.437 246.569,-632.837"/>
<polygon fill="black" stroke="black" points="246.815,-629.344 236.516,-631.828 246.116,-636.309 246.815,-629.344"/>
<text text-anchor="middle" x="268.493" y="-648.298" font-family="Times,serif" font-size="14.00">9:0</text>
</g>
<!-- 3&#45;&gt;4 -->
<g id="edge12" class="edge"><title>3&#45;&gt;4</title>
<path fill="none" stroke="black" d="M336.2,-681.173C348.373,-677.569 364.945,-671.697 377.99,-663.498 383.224,-660.208 388.336,-656.008 392.926,-651.742"/>
<polygon fill="black" stroke="black" points="395.447,-654.172 400.089,-644.648 390.521,-649.198 395.447,-654.172"/>
<text text-anchor="middle" x="365.49" y="-678.298" font-family="Times,serif" font-size="14.00">11:0</text>
</g>
<!-- 3&#45;&gt;5 -->
<g id="edge13" class="edge"><title>3&#45;&gt;5</title>
<path fill="none" stroke="black" d="M335.657,-691.3C347.56,-694.713 364.032,-697.626 377.99,-693.498 405.414,-685.387 409.407,-676.05 431.986,-658.498 451.106,-643.635 457.388,-640.821 471.986,-621.498 481.154,-609.363 489.005,-594.341 494.797,-581.696"/>
<polygon fill="black" stroke="black" points="498.167,-582.727 498.987,-572.164 491.759,-579.91 498.167,-582.727"/>
<text text-anchor="middle" x="412.488" y="-691.298" font-family="Times,serif" font-size="14.00">12:0</text>
</g>
<!-- 4&#45;&gt;2 -->
<g id="edge14" class="edge"><title>4&#45;&gt;2</title>
<path fill="none" stroke="black" d="M395.448,-625.219C380.76,-619.828 358.285,-612.471 337.99,-609.498 305.889,-604.797 269.204,-613.861 245.264,-621.741"/>
<polygon fill="black" stroke="black" points="243.833,-618.532 235.53,-625.113 246.124,-625.147 243.833,-618.532"/>
<text text-anchor="middle" x="318.491" y="-613.298" font-family="Times,serif" font-size="14.00">13:0</text>
</g>
<!-- 4&#45;&gt;3 -->
<g id="edge15" class="edge"><title>4&#45;&gt;3</title>
<path fill="none" stroke="black" d="M394.501,-632.326C382.19,-633.596 365.567,-636.749 352.99,-644.498 345.837,-648.906 339.521,-655.393 334.357,-661.912"/>
<polygon fill="black" stroke="black" points="331.502,-659.887 328.455,-670.034 337.165,-664.002 331.502,-659.887"/>
<text text-anchor="middle" x="365.49" y="-648.298" font-family="Times,serif" font-size="14.00">14:0</text>
</g>
<!-- 4&#45;&gt;5 -->
<g id="edge16" class="edge"><title>4&#45;&gt;5</title>
<path fill="none" stroke="black" d="M427.062,-620.284C442.096,-607.865 466.53,-587.679 484.132,-573.138"/>
<polygon fill="black" stroke="black" points="486.673,-575.579 492.153,-566.511 482.215,-570.182 486.673,-575.579"/>
<text text-anchor="middle" x="459.486" y="-606.298" font-family="Times,serif" font-size="14.00">16:0</text>
</g>
<!-- 6 -->
<g id="node10" class="node"><title>6</title>
<ellipse fill="none" stroke="black" cx="600.481" cy="-502.498" rx="18" ry="18"/>
<text text-anchor="middle" x="600.481" y="-498.798" font-family="Times,serif" font-size="14.00">6</text>
</g>
<!-- 5&#45;&gt;6 -->
<g id="edge17" class="edge"><title>5&#45;&gt;6</title>
<path fill="none" stroke="black" d="M522.676,-546.746C537.144,-538.411 559.138,-525.74 575.888,-516.091"/>
<polygon fill="black" stroke="black" points="577.655,-519.112 584.572,-511.087 574.16,-513.047 577.655,-519.112"/>
<text text-anchor="middle" x="553.483" y="-539.298" font-family="Times,serif" font-size="14.00">18:0</text>
</g>
<!-- 6&#45;&gt;0 -->
<g id="edge18" class="edge"><title>6&#45;&gt;0</title>
<path fill="none" stroke="black" d="M583.964,-494.699C566.02,-486.414 535.365,-474.498 507.484,-474.498 117.498,-474.498 117.498,-474.498 117.498,-474.498 81.8123,-474.498 75.6815,-451.045 59,-419.498 41.3504,-386.12 30.1785,-278.345 25.5109,-223.783"/>
<polygon fill="black" stroke="black" points="28.9823,-223.293 24.6641,-213.618 22.0064,-223.874 28.9823,-223.293"/>
<text text-anchor="middle" x="318.491" y="-478.298" font-family="Times,serif" font-size="14.00">0:0</text>
</g>
<!-- 8&#45;&gt;9 -->
<g id="edge22" class="edge"><title>8&#45;&gt;9</title>
<path fill="none" stroke="black" d="M226.217,-290.885C231.823,-302.755 240.853,-318.424 252.993,-328.498 263.823,-337.485 278.254,-343.483 290.719,-347.345"/>
<polygon fill="black" stroke="black" points="290.032,-350.788 300.605,-350.106 291.915,-344.045 290.032,-350.788"/>
<text text-anchor="middle" x="268.493" y="-349.298" font-family="Times,serif" font-size="14.00">24:0</text>
</g>
<!-- 8&#45;&gt;10 -->
<g id="edge23" class="edge"><title>8&#45;&gt;10</title>
<path fill="none" stroke="black" d="M236.533,-276.628C269.557,-280.756 342.581,-289.885 383.067,-294.946"/>
<polygon fill="black" stroke="black" points="382.733,-298.431 393.09,-296.198 383.601,-291.485 382.733,-298.431"/>
<text text-anchor="middle" x="318.491" y="-293.298" font-family="Times,serif" font-size="14.00">25:0</text>
</g>
<!-- 11 -->
<g id="node14" class="node"><title>11</title>
<ellipse fill="none" stroke="black" cx="506.484" cy="-350.498" rx="19.4965" ry="19.4965"/>
<text text-anchor="middle" x="506.484" y="-346.798" font-family="Times,serif" font-size="14.00">11</text>
</g>
<!-- 8&#45;&gt;11 -->
<g id="edge24" class="edge"><title>8&#45;&gt;11</title>
<path fill="none" stroke="black" d="M234.828,-266.892C240.416,-264.444 246.867,-261.983 252.993,-260.498 307.094,-247.382 323.041,-243.581 377.99,-252.498 402.96,-256.551 410.754,-256.746 431.986,-270.498 454.841,-285.301 475.294,-308.852 488.785,-326.575"/>
<polygon fill="black" stroke="black" points="486.067,-328.787 494.828,-334.744 491.694,-324.623 486.067,-328.787"/>
<text text-anchor="middle" x="365.49" y="-257.298" font-family="Times,serif" font-size="14.00">26:0</text>
</g>
<!-- 9&#45;&gt;8 -->
<g id="edge25" class="edge"><title>9&#45;&gt;8</title>
<path fill="none" stroke="black" d="M308.3,-338.334C302.221,-329.186 293.615,-317.746 283.993,-309.498 277.385,-303.834 259.456,-294.245 244.174,-286.535"/>
<polygon fill="black" stroke="black" points="245.637,-283.354 235.125,-282.029 242.517,-289.62 245.637,-283.354"/>
<text text-anchor="middle" x="268.493" y="-313.298" font-family="Times,serif" font-size="14.00">27:0</text>
</g>
<!-- 9&#45;&gt;10 -->
<g id="edge26" class="edge"><title>9&#45;&gt;10</title>
<path fill="none" stroke="black" d="M335.936,-348.922C348.128,-345.092 364.84,-338.901 377.99,-330.498 382.615,-327.543 387.155,-323.889 391.327,-320.119"/>
<polygon fill="black" stroke="black" points="394.06,-322.344 398.82,-312.879 389.196,-317.31 394.06,-322.344"/>
<text text-anchor="middle" x="365.49" y="-347.298" font-family="Times,serif" font-size="14.00">29:0</text>
</g>
<!-- 9&#45;&gt;11 -->
<g id="edge27" class="edge"><title>9&#45;&gt;11</title>
<path fill="none" stroke="black" d="M336.015,-358.859C341.371,-360.347 347.378,-361.758 352.99,-362.498 396.089,-368.187 446.423,-361.694 477.116,-356.272"/>
<polygon fill="black" stroke="black" points="477.915,-359.684 487.11,-354.42 476.639,-352.801 477.915,-359.684"/>
<text text-anchor="middle" x="412.488" y="-369.298" font-family="Times,serif" font-size="14.00">30:0</text>
</g>
<!-- 10&#45;&gt;8 -->
<g id="edge28" class="edge"><title>10&#45;&gt;8</title>
<path fill="none" stroke="black" d="M395.207,-289.081C380.727,-281.284 358.699,-270.811 337.99,-266.498 306.866,-260.017 270.25,-264.245 246.047,-268.633"/>
<polygon fill="black" stroke="black" points="245.321,-265.208 236.176,-270.557 246.661,-272.079 245.321,-265.208"/>
<text text-anchor="middle" x="318.491" y="-270.298" font-family="Times,serif" font-size="14.00">31:0</text>
</g>
<!-- 10&#45;&gt;9 -->
<g id="edge29" class="edge"><title>10&#45;&gt;9</title>
<path fill="none" stroke="black" d="M392.889,-299.45C380.751,-300.805 364.992,-304.005 352.99,-311.498 345.647,-316.083 339.225,-322.863 334.022,-329.645"/>
<polygon fill="black" stroke="black" points="330.987,-327.876 328.105,-338.071 336.716,-331.899 330.987,-327.876"/>
<text text-anchor="middle" x="365.49" y="-315.298" font-family="Times,serif" font-size="14.00">32:0</text>
</g>
<!-- 10&#45;&gt;11 -->
<g id="edge30" class="edge"><title>10&#45;&gt;11</title>
<path fill="none" stroke="black" d="M429.935,-307.795C443.933,-315.707 464.262,-327.198 480.308,-336.267"/>
<polygon fill="black" stroke="black" points="478.752,-339.408 489.18,-341.282 482.196,-333.314 478.752,-339.408"/>
<text text-anchor="middle" x="459.486" y="-335.298" font-family="Times,serif" font-size="14.00">34:0</text>
</g>
<!-- 12 -->
<g id="node15" class="node"><title>12</title>
<ellipse fill="none" stroke="black" cx="600.481" cy="-397.498" rx="19.4965" ry="19.4965"/>
<text text-anchor="middle" x="600.481" y="-393.798" font-family="Times,serif" font-size="14.00">12</text>
</g>
<!-- 11&#45;&gt;12 -->
<g id="edge31" class="edge"><title>11&#45;&gt;12</title>
<path fill="none" stroke="black" d="M524.358,-359.119C538.104,-366.142 557.745,-376.176 573.497,-384.223"/>
<polygon fill="black" stroke="black" points="572.217,-387.5 582.714,-388.932 575.402,-381.266 572.217,-387.5"/>
<text text-anchor="middle" x="553.483" y="-384.298" font-family="Times,serif" font-size="14.00">36:0</text>
</g>
<!-- 12&#45;&gt;0 -->
<g id="edge32" class="edge"><title>12&#45;&gt;0</title>
<path fill="none" stroke="black" d="M582.59,-405.299C564.437,-412.958 534.538,-423.498 507.484,-423.498 117.498,-423.498 117.498,-423.498 117.498,-423.498 32.3955,-423.498 22.1811,-287.948 22.0925,-224.07"/>
<polygon fill="black" stroke="black" points="25.5946,-223.768 22.1662,-213.743 18.5948,-223.718 25.5946,-223.768"/>
<text text-anchor="middle" x="318.491" y="-427.298" font-family="Times,serif" font-size="14.00">0:0</text>
</g>
<!-- 15 -->
<g id="node17" class="node"><title>15</title>
<ellipse fill="none" stroke="black" cx="318.491" cy="-112.498" rx="19.4965" ry="19.4965"/>
<text text-anchor="middle" x="318.491" y="-108.798" font-family="Times,serif" font-size="14.00">15</text>
</g>
<!-- 14&#45;&gt;15 -->
<g id="edge34" class="edge"><title>14&#45;&gt;15</title>
<path fill="none" stroke="black" d="M237.015,-144.526C251.925,-138.592 273.581,-129.973 290.673,-123.171"/>
<polygon fill="black" stroke="black" points="292.126,-126.36 300.123,-119.41 289.538,-119.856 292.126,-126.36"/>
<text text-anchor="middle" x="268.493" y="-142.298" font-family="Times,serif" font-size="14.00">96:0</text>
</g>
<!-- 15&#45;&gt;0 -->
<g id="edge35" class="edge"><title>15&#45;&gt;0</title>
<path fill="none" stroke="black" d="M298.871,-111.559C260.147,-110.272 168.738,-110.731 99,-138.498 79.8857,-146.109 60.9007,-159.344 46.6868,-170.684"/>
<polygon fill="black" stroke="black" points="44.4043,-168.029 38.9042,-177.085 48.8509,-173.436 44.4043,-168.029"/>
<text text-anchor="middle" x="168.497" y="-126.298" font-family="Times,serif" font-size="14.00">0:0</text>
</g>
<!-- 18 -->
<g id="node19" class="node"><title>18</title>
<ellipse fill="none" stroke="black" cx="318.491" cy="-38.4983" rx="19.4965" ry="19.4965"/>
<text text-anchor="middle" x="318.491" y="-34.7983" font-family="Times,serif" font-size="14.00">18</text>
</g>
<!-- 17&#45;&gt;18 -->
<g id="edge37" class="edge"><title>17&#45;&gt;18</title>
<path fill="none" stroke="black" d="M237.927,-23.072C252.299,-25.8585 272.513,-29.7777 288.969,-32.9683"/>
<polygon fill="black" stroke="black" points="288.658,-36.4731 299.142,-34.9405 289.991,-29.601 288.658,-36.4731"/>
<text text-anchor="middle" x="268.493" y="-36.2983" font-family="Times,serif" font-size="14.00">102:0</text>
</g>
<!-- 18&#45;&gt;0 -->
<g id="edge38" class="edge"><title>18&#45;&gt;0</title>
<path fill="none" stroke="black" d="M300.137,-45.3306C294.955,-47.3447 289.253,-49.5345 283.993,-51.4983 183.096,-89.1696 141.712,-72.5193 59,-141.498 51.3988,-147.837 44.5893,-156.126 38.9922,-164.127"/>
<polygon fill="black" stroke="black" points="35.9951,-162.315 33.4145,-172.59 41.8399,-166.167 35.9951,-162.315"/>
<text text-anchor="middle" x="168.497" y="-92.2983" font-family="Times,serif" font-size="14.00">0:0</text>
</g>
</g>
</svg>
