<?xml version="1.0" encoding="UTF-8" standalone="no"?>
<!DOCTYPE svg PUBLIC "-//W3C//DTD SVG 1.1//EN"
 "http://www.w3.org/Graphics/SVG/1.1/DTD/svg11.dtd">
<!-- Generated by graphviz version 2.38.0 (20140413.2041)
 -->
<!-- Title: FST Pages: 1 -->
<svg width="511pt" height="225pt"
 viewBox="0.00 0.00 511.00 224.52" xmlns="http://www.w3.org/2000/svg" xmlns:xlink="http://www.w3.org/1999/xlink">
<g id="graph0" class="graph" transform="scale(1 1) rotate(0) translate(4 220.519)">
<title>FST</title>
<polygon fill="white" stroke="none" points="-4,4 -4,-220.519 507,-220.519 507,4 -4,4"/>
<!-- 0 -->
<g id="node1" class="node"><title>0</title>
<ellipse fill="none" stroke="black" stroke-width="2" cx="18" cy="-86" rx="18" ry="18"/>
<text text-anchor="middle" x="18" y="-82.3" font-family="Times,serif" font-size="14.00">0</text>
</g>
<!-- 1 -->
<g id="node2" class="node"><title>1</title>
<ellipse fill="none" stroke="black" cx="102" cy="-86" rx="18" ry="18"/>
<text text-anchor="middle" x="102" y="-82.3" font-family="Times,serif" font-size="14.00">1</text>
</g>
<!-- 0&#45;&gt;1 -->
<g id="edge1" class="edge"><title>0&#45;&gt;1</title>
<path fill="none" stroke="black" d="M36.3901,-86C47.2257,-86 61.3988,-86 73.7087,-86"/>
<polygon fill="black" stroke="black" points="73.9162,-89.5001 83.9162,-86 73.9161,-82.5001 73.9162,-89.5001"/>
<text text-anchor="middle" x="60" y="-89.8" font-family="Times,serif" font-size="14.00">2:2</text>
</g>
<!-- 2 -->
<g id="node3" class="node"><title>2</title>
<ellipse fill="none" stroke="black" cx="186" cy="-18" rx="18" ry="18"/>
<text text-anchor="middle" x="186" y="-14.3" font-family="Times,serif" font-size="14.00">2</text>
</g>
<!-- 0&#45;&gt;2 -->
<g id="edge2" class="edge"><title>0&#45;&gt;2</title>
<path fill="none" stroke="black" d="M31.6187,-74.0583C51.6453,-56.0215 92.7801,-22.599 135,-10 142.732,-7.6928 151.346,-8.06825 159.217,-9.49934"/>
<polygon fill="black" stroke="black" points="158.457,-12.9163 168.998,-11.8519 160.094,-6.1104 158.457,-12.9163"/>
<text text-anchor="middle" x="102" y="-36.8" font-family="Times,serif" font-size="14.00">3:3</text>
</g>
<!-- 3 -->
<g id="node4" class="node"><title>3</title>
<ellipse fill="none" stroke="black" cx="283" cy="-86" rx="18" ry="18"/>
<text text-anchor="middle" x="283" y="-82.3" font-family="Times,serif" font-size="14.00">3</text>
</g>
<!-- 0&#45;&gt;3 -->
<g id="edge3" class="edge"><title>0&#45;&gt;3</title>
<path fill="none" stroke="black" d="M29.1399,-100.502C47.1773,-124.937 87.4459,-173.637 135,-194 182.029,-214.138 209.193,-229.856 250,-199 275.729,-179.545 281.879,-140.981 282.823,-114.356"/>
<polygon fill="black" stroke="black" points="286.326,-114.156 282.954,-104.112 279.326,-114.066 286.326,-114.156"/>
<text text-anchor="middle" x="144" y="-204.8" font-family="Times,serif" font-size="14.00">4:4</text>
</g>
<!-- 1&#45;&gt;2 -->
<g id="edge4" class="edge"><title>1&#45;&gt;2</title>
<path fill="none" stroke="black" d="M106.097,-68.3045C109.913,-52.3919 118.098,-29.8957 135,-19 141.698,-14.6823 150.02,-13.3321 157.94,-13.3765"/>
<polygon fill="black" stroke="black" points="157.724,-16.8698 167.951,-14.1059 158.232,-9.88835 157.724,-16.8698"/>
<text text-anchor="middle" x="144" y="-22.8" font-family="Times,serif" font-size="14.00">6:6</text>
</g>
<!-- 1&#45;&gt;3 -->
<g id="edge5" class="edge"><title>1&#45;&gt;3</title>
<path fill="none" stroke="black" d="M118.321,-93.6759C123.509,-96.0105 129.408,-98.3834 135,-100 149.251,-104.119 153.208,-103.886 168,-105 204.409,-107.743 214.718,-109.399 250,-100 252.461,-99.3444 254.976,-98.5271 257.461,-97.6188"/>
<polygon fill="black" stroke="black" points="258.798,-100.853 266.717,-93.8143 256.137,-94.3787 258.798,-100.853"/>
<text text-anchor="middle" x="186" y="-110.8" font-family="Times,serif" font-size="14.00">7:7</text>
</g>
<!-- 4 -->
<g id="node5" class="node"><title>4</title>
<ellipse fill="none" stroke="black" cx="380" cy="-86" rx="18" ry="18"/>
<text text-anchor="middle" x="380" y="-82.3" font-family="Times,serif" font-size="14.00">4</text>
</g>
<!-- 1&#45;&gt;4 -->
<g id="edge6" class="edge"><title>1&#45;&gt;4</title>
<path fill="none" stroke="black" d="M114.804,-98.8879C120.468,-104.464 127.621,-110.686 135,-115 148.347,-122.802 152.74,-123.524 168,-126 247.067,-138.831 271.866,-132.767 347,-105 349.994,-103.893 353.025,-102.506 355.966,-100.988"/>
<polygon fill="black" stroke="black" points="357.961,-103.879 364.903,-95.8746 354.485,-97.8028 357.961,-103.879"/>
<text text-anchor="middle" x="234.5" y="-135.8" font-family="Times,serif" font-size="14.00">8:8</text>
</g>
<!-- 2&#45;&gt;1 -->
<g id="edge7" class="edge"><title>2&#45;&gt;1</title>
<path fill="none" stroke="black" d="M171.202,-28.327C161.039,-36.0382 146.963,-46.937 135,-57 131.185,-60.2095 127.192,-63.7084 123.372,-67.1298"/>
<polygon fill="black" stroke="black" points="120.937,-64.6135 115.885,-73.9263 125.641,-69.7965 120.937,-64.6135"/>
<text text-anchor="middle" x="144" y="-60.8" font-family="Times,serif" font-size="14.00">9:9</text>
</g>
<!-- 2&#45;&gt;3 -->
<g id="edge8" class="edge"><title>2&#45;&gt;3</title>
<path fill="none" stroke="black" d="M203.628,-13.7645C217.191,-11.3026 236.283,-10.1971 250,-19 263.619,-27.7396 271.576,-44.0183 276.149,-58.3409"/>
<polygon fill="black" stroke="black" points="272.864,-59.5909 278.913,-68.2886 279.608,-57.7165 272.864,-59.5909"/>
<text text-anchor="middle" x="234.5" y="-22.8" font-family="Times,serif" font-size="14.00">11:11</text>
</g>
<!-- 2&#45;&gt;4 -->
<g id="edge9" class="edge"><title>2&#45;&gt;4</title>
<path fill="none" stroke="black" d="M203.022,-12.1464C215.894,-8.29093 234.343,-4.68251 250,-9 291.652,-20.4858 333.415,-49.3491 357.704,-68.2907"/>
<polygon fill="black" stroke="black" points="355.829,-71.2718 365.83,-74.7697 360.193,-65.7987 355.829,-71.2718"/>
<text text-anchor="middle" x="283" y="-33.8" font-family="Times,serif" font-size="14.00">12:12</text>
</g>
<!-- 3&#45;&gt;1 -->
<g id="edge10" class="edge"><title>3&#45;&gt;1</title>
<path fill="none" stroke="black" d="M264.889,-86C233.787,-86 167.754,-86 130.344,-86"/>
<polygon fill="black" stroke="black" points="130.163,-82.5001 120.163,-86 130.163,-89.5001 130.163,-82.5001"/>
<text text-anchor="middle" x="186" y="-89.8" font-family="Times,serif" font-size="14.00">13:13</text>
</g>
<!-- 3&#45;&gt;2 -->
<g id="edge11" class="edge"><title>3&#45;&gt;2</title>
<path fill="none" stroke="black" d="M269.688,-73.8754C263.921,-68.4535 256.829,-62.1405 250,-57 237.552,-47.6292 222.78,-38.3951 210.669,-31.2662"/>
<polygon fill="black" stroke="black" points="212.419,-28.2347 202.01,-26.2576 208.914,-34.2942 212.419,-28.2347"/>
<text text-anchor="middle" x="234.5" y="-60.8" font-family="Times,serif" font-size="14.00">14:14</text>
</g>
<!-- 3&#45;&gt;4 -->
<g id="edge12" class="edge"><title>3&#45;&gt;4</title>
<path fill="none" stroke="black" d="M301.424,-86C315.352,-86 335.139,-86 351.243,-86"/>
<polygon fill="black" stroke="black" points="351.686,-89.5001 361.686,-86 351.686,-82.5001 351.686,-89.5001"/>
<text text-anchor="middle" x="331.5" y="-89.8" font-family="Times,serif" font-size="14.00">16:16</text>
</g>
<!-- 5 -->
<g id="node6" class="node"><title>5</title>
<ellipse fill="none" stroke="black" cx="481" cy="-86" rx="18" ry="18"/>
<ellipse fill="none" stroke="black" cx="481" cy="-86" rx="22" ry="22"/>
<text text-anchor="middle" x="481" y="-82.3" font-family="Times,serif" font-size="14.00">5</text>
</g>
<!-- 4&#45;&gt;5 -->
<g id="edge13" class="edge"><title>4&#45;&gt;5</title>
<path fill="none" stroke="black" d="M398.244,-86C412.06,-86 431.812,-86 448.44,-86"/>
<polygon fill="black" stroke="black" points="448.823,-89.5001 458.823,-86 448.823,-82.5001 448.823,-89.5001"/>
<text text-anchor="middle" x="428.5" y="-89.8" font-family="Times,serif" font-size="14.00">18:18</text>
</g>
</g>
</svg>
