<?xml version="1.0" encoding="UTF-8" standalone="no"?>
<!DOCTYPE svg PUBLIC "-//W3C//DTD SVG 1.1//EN"
 "http://www.w3.org/Graphics/SVG/1.1/DTD/svg11.dtd">
<!-- Generated by graphviz version 2.38.0 (20140413.2041)
 -->
<!-- Title: FST Pages: 1 -->
<svg width="371pt" height="52pt"
 viewBox="0.00 0.00 371.00 52.00" xmlns="http://www.w3.org/2000/svg" xmlns:xlink="http://www.w3.org/1999/xlink">
<g id="graph0" class="graph" transform="scale(1 1) rotate(0) translate(4 48)">
<title>FST</title>
<polygon fill="white" stroke="none" points="-4,4 -4,-48 367,-48 367,4 -4,4"/>
<!-- 0 -->
<g id="node1" class="node"><title>0</title>
<ellipse fill="none" stroke="black" stroke-width="2" cx="18" cy="-22" rx="18" ry="18"/>
<text text-anchor="middle" x="18" y="-18.3" font-family="Times,serif" font-size="14.00">0</text>
</g>
<!-- 1 -->
<g id="node2" class="node"><title>1</title>
<ellipse fill="none" stroke="black" cx="115" cy="-22" rx="18" ry="18"/>
<text text-anchor="middle" x="115" y="-18.3" font-family="Times,serif" font-size="14.00">1</text>
</g>
<!-- 0&#45;&gt;1 -->
<g id="edge1" class="edge"><title>0&#45;&gt;1</title>
<path fill="none" stroke="black" d="M36.4245,-22C50.3516,-22 70.1386,-22 86.2427,-22"/>
<polygon fill="black" stroke="black" points="86.686,-25.5001 96.686,-22 86.686,-18.5001 86.686,-25.5001"/>
<text text-anchor="middle" x="66.5" y="-25.8" font-family="Times,serif" font-size="14.00">98:98</text>
</g>
<!-- 2 -->
<g id="node3" class="node"><title>2</title>
<ellipse fill="none" stroke="black" cx="226" cy="-22" rx="18" ry="18"/>
<text text-anchor="middle" x="226" y="-18.3" font-family="Times,serif" font-size="14.00">2</text>
</g>
<!-- 1&#45;&gt;2 -->
<g id="edge2" class="edge"><title>1&#45;&gt;2</title>
<path fill="none" stroke="black" d="M133.031,-22C150.288,-22 177.257,-22 197.538,-22"/>
<polygon fill="black" stroke="black" points="197.729,-25.5001 207.729,-22 197.729,-18.5001 197.729,-25.5001"/>
<text text-anchor="middle" x="170.5" y="-25.8" font-family="Times,serif" font-size="14.00">100:100</text>
</g>
<!-- 3 -->
<g id="node4" class="node"><title>3</title>
<ellipse fill="none" stroke="black" cx="341" cy="-22" rx="18" ry="18"/>
<ellipse fill="none" stroke="black" cx="341" cy="-22" rx="22" ry="22"/>
<text text-anchor="middle" x="341" y="-18.3" font-family="Times,serif" font-size="14.00">3</text>
</g>
<!-- 2&#45;&gt;3 -->
<g id="edge3" class="edge"><title>2&#45;&gt;3</title>
<path fill="none" stroke="black" d="M244.162,-22C261.275,-22 287.946,-22 308.812,-22"/>
<polygon fill="black" stroke="black" points="308.816,-25.5001 318.816,-22 308.816,-18.5001 308.816,-25.5001"/>
<text text-anchor="middle" x="281.5" y="-25.8" font-family="Times,serif" font-size="14.00">102:102</text>
</g>
</g>
</svg>
