<?xml version="1.0" encoding="UTF-8" standalone="no"?>
<!DOCTYPE svg PUBLIC "-//W3C//DTD SVG 1.1//EN"
 "http://www.w3.org/Graphics/SVG/1.1/DTD/svg11.dtd">
<!-- Generated by graphviz version 2.38.0 (20140413.2041)
 -->
<!-- Title: FST Pages: 1 -->
<svg width="612pt" height="29pt"
 viewBox="0.00 0.00 612.00 28.62" xmlns="http://www.w3.org/2000/svg" xmlns:xlink="http://www.w3.org/1999/xlink">
<g id="graph0" class="graph" transform="scale(0.22802 0.22802) rotate(0) translate(4 121.498)">
<title>FST</title>
<polygon fill="white" stroke="none" points="-4,4 -4,-121.498 2679.97,-121.498 2679.97,4 -4,4"/>
<!-- 0 -->
<g id="node1" class="node"><title>0</title>
<ellipse fill="none" stroke="black" stroke-width="2" cx="18" cy="-54.4983" rx="18" ry="18"/>
<text text-anchor="middle" x="18" y="-50.7983" font-family="Times,serif" font-size="14.00">0</text>
</g>
<!-- 1 -->
<g id="node2" class="node"><title>1</title>
<ellipse fill="none" stroke="black" cx="205" cy="-54.4983" rx="18" ry="18"/>
<text text-anchor="middle" x="205" y="-50.7983" font-family="Times,serif" font-size="14.00">1</text>
</g>
<!-- 0&#45;&gt;1 -->
<g id="edge1" class="edge"><title>0&#45;&gt;1</title>
<path fill="none" stroke="black" d="M36.0728,-54.4983C68.2873,-54.4983 138.268,-54.4983 176.947,-54.4983"/>
<polygon fill="black" stroke="black" points="176.969,-57.9984 186.969,-54.4983 176.968,-50.9984 176.969,-57.9984"/>
<text text-anchor="middle" x="111.5" y="-58.2983" font-family="Times,serif" font-size="14.00">&lt;eps&gt;:&lt;eps&gt;/0.69315</text>
</g>
<!-- 0&#45;&gt;1 -->
<g id="edge2" class="edge"><title>0&#45;&gt;1</title>
<path fill="none" stroke="black" d="M32.9086,-44.0375C38.2739,-40.6134 44.6448,-37.2428 51,-35.4983 102.859,-21.2626 120.141,-21.2626 172,-35.4983 175.078,-36.3433 178.16,-37.5698 181.13,-38.9991"/>
<polygon fill="black" stroke="black" points="179.659,-42.1875 190.091,-44.0375 183.09,-36.0858 179.659,-42.1875"/>
<text text-anchor="middle" x="111.5" y="-39.2983" font-family="Times,serif" font-size="14.00">SIL:&lt;eps&gt;/0.69315</text>
</g>
<!-- 2 -->
<g id="node3" class="node"><title>2</title>
<ellipse fill="none" stroke="black" cx="352" cy="-83.4983" rx="18" ry="18"/>
<text text-anchor="middle" x="352" y="-79.7983" font-family="Times,serif" font-size="14.00">2</text>
</g>
<!-- 1&#45;&gt;2 -->
<g id="edge3" class="edge"><title>1&#45;&gt;2</title>
<path fill="none" stroke="black" d="M222.917,-57.8817C247.801,-62.8585 294.518,-72.2019 324.128,-78.1238"/>
<polygon fill="black" stroke="black" points="323.698,-81.6072 334.191,-80.1364 325.071,-74.7431 323.698,-81.6072"/>
<text text-anchor="middle" x="278.5" y="-80.2983" font-family="Times,serif" font-size="14.00">HH_B:WHAT</text>
</g>
<!-- 3 -->
<g id="node4" class="node"><title>3</title>
<ellipse fill="none" stroke="black" cx="417" cy="-34.4983" rx="18" ry="18"/>
<text text-anchor="middle" x="417" y="-30.7983" font-family="Times,serif" font-size="14.00">3</text>
</g>
<!-- 1&#45;&gt;3 -->
<g id="edge4" class="edge"><title>1&#45;&gt;3</title>
<path fill="none" stroke="black" d="M221.661,-47.5071C226.77,-45.5313 232.536,-43.6164 238,-42.4983 290.368,-31.7822 353.14,-31.8878 388.411,-33.0883"/>
<polygon fill="black" stroke="black" points="388.716,-36.6032 398.848,-33.5043 388.995,-29.6087 388.716,-36.6032"/>
<text text-anchor="middle" x="278.5" y="-46.2983" font-family="Times,serif" font-size="14.00">W_B:WHAT</text>
</g>
<!-- 4 -->
<g id="node5" class="node"><title>4</title>
<ellipse fill="none" stroke="black" cx="499" cy="-86.4983" rx="18" ry="18"/>
<text text-anchor="middle" x="499" y="-82.7983" font-family="Times,serif" font-size="14.00">4</text>
</g>
<!-- 2&#45;&gt;4 -->
<g id="edge5" class="edge"><title>2&#45;&gt;4</title>
<path fill="none" stroke="black" d="M370.203,-83.8542C395.057,-84.3684 441.258,-85.3243 470.772,-85.9349"/>
<polygon fill="black" stroke="black" points="470.749,-89.4351 480.82,-86.1428 470.894,-82.4366 470.749,-89.4351"/>
<text text-anchor="middle" x="417" y="-88.2983" font-family="Times,serif" font-size="14.00">W_I:&lt;eps&gt;</text>
</g>
<!-- 5 -->
<g id="node6" class="node"><title>5</title>
<ellipse fill="none" stroke="black" cx="652" cy="-34.4983" rx="18" ry="18"/>
<text text-anchor="middle" x="652" y="-30.7983" font-family="Times,serif" font-size="14.00">5</text>
</g>
<!-- 3&#45;&gt;5 -->
<g id="edge6" class="edge"><title>3&#45;&gt;5</title>
<path fill="none" stroke="black" d="M435.133,-34.4983C475.192,-34.4983 575.248,-34.4983 623.766,-34.4983"/>
<polygon fill="black" stroke="black" points="623.842,-37.9984 633.842,-34.4983 623.842,-30.9984 623.842,-37.9984"/>
<text text-anchor="middle" x="499" y="-38.2983" font-family="Times,serif" font-size="14.00">AH_I:&lt;eps&gt;</text>
</g>
<!-- 6 -->
<g id="node7" class="node"><title>6</title>
<ellipse fill="none" stroke="black" cx="652" cy="-88.4983" rx="18" ry="18"/>
<text text-anchor="middle" x="652" y="-84.7983" font-family="Times,serif" font-size="14.00">6</text>
</g>
<!-- 4&#45;&gt;6 -->
<g id="edge7" class="edge"><title>4&#45;&gt;6</title>
<path fill="none" stroke="black" d="M517.028,-86.7238C542.97,-87.0674 592.643,-87.7253 623.674,-88.1363"/>
<polygon fill="black" stroke="black" points="623.757,-91.6376 633.802,-88.2705 623.85,-84.6383 623.757,-91.6376"/>
<text text-anchor="middle" x="584" y="-91.2983" font-family="Times,serif" font-size="14.00">AH_I:&lt;eps&gt;</text>
</g>
<!-- 7 -->
<g id="node8" class="node"><title>7</title>
<ellipse fill="none" stroke="black" cx="1027" cy="-57.4983" rx="18" ry="18"/>
<text text-anchor="middle" x="1027" y="-53.7983" font-family="Times,serif" font-size="14.00">7</text>
</g>
<!-- 5&#45;&gt;7 -->
<g id="edge8" class="edge"><title>5&#45;&gt;7</title>
<path fill="none" stroke="black" d="M669.736,-30.3374C712.062,-20.4531 826.652,2.32136 920,-15.4983 949.206,-21.0736 980.633,-34.5663 1001.62,-44.7656"/>
<polygon fill="black" stroke="black" points="1000.24,-47.9902 1010.75,-49.3191 1003.37,-41.7254 1000.24,-47.9902"/>
<text text-anchor="middle" x="865" y="-19.2983" font-family="Times,serif" font-size="14.00">T_E:&lt;eps&gt;/0.69315</text>
</g>
<!-- 8 -->
<g id="node9" class="node"><title>8</title>
<ellipse fill="none" stroke="black" cx="865" cy="-57.4983" rx="18" ry="18"/>
<text text-anchor="middle" x="865" y="-53.7983" font-family="Times,serif" font-size="14.00">8</text>
</g>
<!-- 5&#45;&gt;8 -->
<g id="edge9" class="edge"><title>5&#45;&gt;8</title>
<path fill="none" stroke="black" d="M670.123,-34.8278C696.88,-35.5127 750.187,-37.5602 795,-43.4983 809.105,-45.3673 824.65,-48.4313 837.408,-51.217"/>
<polygon fill="black" stroke="black" points="836.852,-54.6795 847.376,-53.4593 838.388,-47.8501 836.852,-54.6795"/>
<text text-anchor="middle" x="740" y="-47.2983" font-family="Times,serif" font-size="14.00">T_E:&lt;eps&gt;/0.69315</text>
</g>
<!-- 6&#45;&gt;7 -->
<g id="edge10" class="edge"><title>6&#45;&gt;7</title>
<path fill="none" stroke="black" d="M669.425,-94.048C674.372,-95.4654 679.855,-96.7885 685,-97.4983 788.623,-111.793 815.979,-95.5301 920,-84.4983 952.896,-81.0095 962.617,-86.9592 994,-76.4983 997.028,-75.4888 1000.08,-74.1613 1003.03,-72.6761"/>
<polygon fill="black" stroke="black" points="1005.02,-75.5749 1011.98,-67.5905 1001.56,-69.4893 1005.02,-75.5749"/>
<text text-anchor="middle" x="865" y="-102.298" font-family="Times,serif" font-size="14.00">T_E:&lt;eps&gt;/0.69315</text>
</g>
<!-- 6&#45;&gt;8 -->
<g id="edge11" class="edge"><title>6&#45;&gt;8</title>
<path fill="none" stroke="black" d="M669.914,-85.1747C674.776,-84.2606 680.091,-83.3008 685,-82.4983 738.742,-73.7119 801.882,-65.3491 836.98,-60.8735"/>
<polygon fill="black" stroke="black" points="837.449,-64.3421 846.93,-59.6132 836.57,-57.3976 837.449,-64.3421"/>
<text text-anchor="middle" x="740" y="-86.2983" font-family="Times,serif" font-size="14.00">T_E:&lt;eps&gt;/0.69315</text>
</g>
<!-- 9 -->
<g id="node10" class="node"><title>9</title>
<ellipse fill="none" stroke="black" cx="1160.5" cy="-89.4983" rx="18" ry="18"/>
<text text-anchor="middle" x="1160.5" y="-85.7983" font-family="Times,serif" font-size="14.00">9</text>
</g>
<!-- 7&#45;&gt;9 -->
<g id="edge12" class="edge"><title>7&#45;&gt;9</title>
<path fill="none" stroke="black" d="M1044.65,-61.5511C1066.86,-66.9554 1106.43,-76.5847 1132.82,-83.0068"/>
<polygon fill="black" stroke="black" points="1132.02,-86.4135 1142.56,-85.3773 1133.67,-79.612 1132.02,-86.4135"/>
<text text-anchor="middle" x="1093" y="-84.2983" font-family="Times,serif" font-size="14.00">DH_B:THE</text>
</g>
<!-- 10 -->
<g id="node11" class="node"><title>10</title>
<ellipse fill="none" stroke="black" cx="1160.5" cy="-34.4983" rx="19.4965" ry="19.4965"/>
<text text-anchor="middle" x="1160.5" y="-30.7983" font-family="Times,serif" font-size="14.00">10</text>
</g>
<!-- 7&#45;&gt;10 -->
<g id="edge13" class="edge"><title>7&#45;&gt;10</title>
<path fill="none" stroke="black" d="M1044.13,-51.8601C1049.17,-50.2629 1054.77,-48.6481 1060,-47.4983 1083.65,-42.2983 1110.96,-38.9124 1130.97,-36.9037"/>
<polygon fill="black" stroke="black" points="1131.37,-40.3817 1141,-35.9516 1130.71,-33.4131 1131.37,-40.3817"/>
<text text-anchor="middle" x="1093" y="-51.2983" font-family="Times,serif" font-size="14.00">DH_B:THE</text>
</g>
<!-- 8&#45;&gt;7 -->
<g id="edge14" class="edge"><title>8&#45;&gt;7</title>
<path fill="none" stroke="black" d="M883.123,-57.4983C910.646,-57.4983 964.992,-57.4983 998.151,-57.4983"/>
<polygon fill="black" stroke="black" points="998.515,-60.9984 1008.52,-57.4983 998.515,-53.9984 998.515,-60.9984"/>
<text text-anchor="middle" x="964.5" y="-61.2983" font-family="Times,serif" font-size="14.00">SIL:&lt;eps&gt;</text>
</g>
<!-- 11 -->
<g id="node12" class="node"><title>11</title>
<ellipse fill="none" stroke="black" cx="1560.49" cy="-58.4983" rx="19.4965" ry="19.4965"/>
<text text-anchor="middle" x="1560.49" y="-54.7983" font-family="Times,serif" font-size="14.00">11</text>
</g>
<!-- 9&#45;&gt;11 -->
<g id="edge15" class="edge"><title>9&#45;&gt;11</title>
<path fill="none" stroke="black" d="M1177.64,-95.3473C1183.08,-97.0393 1189.23,-98.6561 1195,-99.4983 1308.16,-116.029 1338.3,-98.8446 1452,-86.4983 1484.93,-82.9217 1494.53,-87.8727 1526,-77.4983 1528.95,-76.5247 1531.93,-75.278 1534.84,-73.8894"/>
<polygon fill="black" stroke="black" points="1536.57,-76.9339 1543.74,-69.1313 1533.27,-70.7614 1536.57,-76.9339"/>
<text text-anchor="middle" x="1391.5" y="-106.298" font-family="Times,serif" font-size="14.00">AH_E:&lt;eps&gt;/0.69315</text>
</g>
<!-- 12 -->
<g id="node13" class="node"><title>12</title>
<ellipse fill="none" stroke="black" cx="1391.5" cy="-58.4983" rx="19.4965" ry="19.4965"/>
<text text-anchor="middle" x="1391.5" y="-54.7983" font-family="Times,serif" font-size="14.00">12</text>
</g>
<!-- 9&#45;&gt;12 -->
<g id="edge16" class="edge"><title>9&#45;&gt;12</title>
<path fill="none" stroke="black" d="M1178.53,-86.9021C1183.81,-86.1125 1189.64,-85.2542 1195,-84.4983 1254.09,-76.1592 1323.34,-67.1232 1361.52,-62.2047"/>
<polygon fill="black" stroke="black" points="1362.41,-65.6195 1371.88,-60.8732 1361.52,-58.6766 1362.41,-65.6195"/>
<text text-anchor="middle" x="1255.5" y="-88.2983" font-family="Times,serif" font-size="14.00">AH_E:&lt;eps&gt;/0.69315</text>
</g>
<!-- 10&#45;&gt;11 -->
<g id="edge17" class="edge"><title>10&#45;&gt;11</title>
<path fill="none" stroke="black" d="M1179.72,-30.1278C1225.79,-19.7585 1350.5,4.04766 1452,-15.4983 1481.27,-21.1351 1512.7,-34.6696 1533.96,-45.061"/>
<polygon fill="black" stroke="black" points="1532.47,-48.2257 1542.97,-49.5745 1535.6,-41.9668 1532.47,-48.2257"/>
<text text-anchor="middle" x="1391.5" y="-19.2983" font-family="Times,serif" font-size="14.00">IY_E:&lt;eps&gt;/0.69315</text>
</g>
<!-- 10&#45;&gt;12 -->
<g id="edge18" class="edge"><title>10&#45;&gt;12</title>
<path fill="none" stroke="black" d="M1180.12,-34.9757C1209.21,-35.8854 1267.19,-38.3563 1316,-44.4983 1331.4,-46.4363 1348.42,-49.56 1362.3,-52.3656"/>
<polygon fill="black" stroke="black" points="1361.72,-55.8201 1372.22,-54.4241 1363.14,-48.966 1361.72,-55.8201"/>
<text text-anchor="middle" x="1255.5" y="-48.2983" font-family="Times,serif" font-size="14.00">IY_E:&lt;eps&gt;/0.69315</text>
</g>
<!-- 13 -->
<g id="node14" class="node"><title>13</title>
<ellipse fill="none" stroke="black" cx="1719.49" cy="-58.4983" rx="19.4965" ry="19.4965"/>
<text text-anchor="middle" x="1719.49" y="-54.7983" font-family="Times,serif" font-size="14.00">13</text>
</g>
<!-- 11&#45;&gt;13 -->
<g id="edge19" class="edge"><title>11&#45;&gt;13</title>
<path fill="none" stroke="black" d="M1580.12,-58.4983C1607.27,-58.4983 1657.93,-58.4983 1689.85,-58.4983"/>
<polygon fill="black" stroke="black" points="1689.89,-61.9984 1699.89,-58.4983 1689.89,-54.9984 1689.89,-61.9984"/>
<text text-anchor="middle" x="1639.99" y="-62.2983" font-family="Times,serif" font-size="14.00">F_B:FLAMING</text>
</g>
<!-- 12&#45;&gt;11 -->
<g id="edge20" class="edge"><title>12&#45;&gt;11</title>
<path fill="none" stroke="black" d="M1411.01,-58.4983C1439.97,-58.4983 1496.24,-58.4983 1530.59,-58.4983"/>
<polygon fill="black" stroke="black" points="1530.9,-61.9984 1540.9,-58.4983 1530.9,-54.9984 1530.9,-61.9984"/>
<text text-anchor="middle" x="1496.5" y="-62.2983" font-family="Times,serif" font-size="14.00">SIL:&lt;eps&gt;</text>
</g>
<!-- 14 -->
<g id="node15" class="node"><title>14</title>
<ellipse fill="none" stroke="black" cx="1846.49" cy="-58.4983" rx="19.4965" ry="19.4965"/>
<text text-anchor="middle" x="1846.49" y="-54.7983" font-family="Times,serif" font-size="14.00">14</text>
</g>
<!-- 13&#45;&gt;14 -->
<g id="edge21" class="edge"><title>13&#45;&gt;14</title>
<path fill="none" stroke="black" d="M1739.2,-58.4983C1759.64,-58.4983 1792.62,-58.4983 1816.43,-58.4983"/>
<polygon fill="black" stroke="black" points="1816.65,-61.9984 1826.65,-58.4983 1816.65,-54.9984 1816.65,-61.9984"/>
<text text-anchor="middle" x="1782.99" y="-62.2983" font-family="Times,serif" font-size="14.00">L_I:&lt;eps&gt;</text>
</g>
<!-- 15 -->
<g id="node16" class="node"><title>15</title>
<ellipse fill="none" stroke="black" cx="1983.48" cy="-58.4983" rx="19.4965" ry="19.4965"/>
<text text-anchor="middle" x="1983.48" y="-54.7983" font-family="Times,serif" font-size="14.00">15</text>
</g>
<!-- 14&#45;&gt;15 -->
<g id="edge22" class="edge"><title>14&#45;&gt;15</title>
<path fill="none" stroke="black" d="M1866.26,-58.4983C1888.93,-58.4983 1927.3,-58.4983 1953.71,-58.4983"/>
<polygon fill="black" stroke="black" points="1953.87,-61.9984 1963.87,-58.4983 1953.87,-54.9984 1953.87,-61.9984"/>
<text text-anchor="middle" x="1914.99" y="-62.2983" font-family="Times,serif" font-size="14.00">EY_I:&lt;eps&gt;</text>
</g>
<!-- 16 -->
<g id="node17" class="node"><title>16</title>
<ellipse fill="none" stroke="black" cx="2115.48" cy="-58.4983" rx="19.4965" ry="19.4965"/>
<text text-anchor="middle" x="2115.48" y="-54.7983" font-family="Times,serif" font-size="14.00">16</text>
</g>
<!-- 15&#45;&gt;16 -->
<g id="edge23" class="edge"><title>15&#45;&gt;16</title>
<path fill="none" stroke="black" d="M2003.11,-58.4983C2024.73,-58.4983 2060.64,-58.4983 2085.83,-58.4983"/>
<polygon fill="black" stroke="black" points="2085.89,-61.9984 2095.89,-58.4983 2085.89,-54.9984 2085.89,-61.9984"/>
<text text-anchor="middle" x="2049.48" y="-62.2983" font-family="Times,serif" font-size="14.00">M_I:&lt;eps&gt;</text>
</g>
<!-- 17 -->
<g id="node18" class="node"><title>17</title>
<ellipse fill="none" stroke="black" cx="2248.48" cy="-58.4983" rx="19.4965" ry="19.4965"/>
<text text-anchor="middle" x="2248.48" y="-54.7983" font-family="Times,serif" font-size="14.00">17</text>
</g>
<!-- 16&#45;&gt;17 -->
<g id="edge24" class="edge"><title>16&#45;&gt;17</title>
<path fill="none" stroke="black" d="M2135.25,-58.4983C2157.04,-58.4983 2193.23,-58.4983 2218.6,-58.4983"/>
<polygon fill="black" stroke="black" points="2218.74,-61.9984 2228.74,-58.4983 2218.74,-54.9984 2218.74,-61.9984"/>
<text text-anchor="middle" x="2181.98" y="-62.2983" font-family="Times,serif" font-size="14.00">IH_I:&lt;eps&gt;</text>
</g>
<!-- 18 -->
<g id="node19" class="node"><title>18</title>
<ellipse fill="none" stroke="black" cx="2652.47" cy="-53.4983" rx="19.4968" ry="19.4968"/>
<ellipse fill="none" stroke="black" cx="2652.47" cy="-53.4983" rx="23.4965" ry="23.4965"/>
<text text-anchor="middle" x="2652.47" y="-49.7983" font-family="Times,serif" font-size="14.00">18</text>
</g>
<!-- 17&#45;&gt;18 -->
<g id="edge25" class="edge"><title>17&#45;&gt;18</title>
<path fill="none" stroke="black" d="M2268.12,-59.8814C2321.91,-63.5967 2481.96,-72.7144 2613.98,-60.4983 2615.7,-60.3388 2617.46,-60.1391 2619.23,-59.9088"/>
<polygon fill="black" stroke="black" points="2620.02,-63.3284 2629.36,-58.3259 2618.94,-56.4124 2620.02,-63.3284"/>
<text text-anchor="middle" x="2479.48" y="-70.2983" font-family="Times,serif" font-size="14.00">NG_E:&lt;eps&gt;/0.69315</text>
</g>
<!-- 19 -->
<g id="node20" class="node"><title>19</title>
<ellipse fill="none" stroke="black" cx="2479.48" cy="-19.4983" rx="19.4965" ry="19.4965"/>
<text text-anchor="middle" x="2479.48" y="-15.7983" font-family="Times,serif" font-size="14.00">19</text>
</g>
<!-- 17&#45;&gt;19 -->
<g id="edge26" class="edge"><title>17&#45;&gt;19</title>
<path fill="none" stroke="black" d="M2266.61,-50.9492C2271.78,-48.9149 2277.54,-46.8938 2282.98,-45.4983 2340.93,-30.6254 2410.86,-23.9424 2449.41,-21.1984"/>
<polygon fill="black" stroke="black" points="2450.13,-24.6584 2459.87,-20.4968 2449.66,-17.6741 2450.13,-24.6584"/>
<text text-anchor="middle" x="2343.48" y="-49.2983" font-family="Times,serif" font-size="14.00">NG_E:&lt;eps&gt;/0.69315</text>
</g>
<!-- 19&#45;&gt;18 -->
<g id="edge27" class="edge"><title>19&#45;&gt;18</title>
<path fill="none" stroke="black" d="M2499.07,-23.0111C2524.88,-27.9124 2573.03,-37.143 2613.98,-45.4983 2615.68,-45.8459 2617.43,-46.2059 2619.19,-46.5722"/>
<polygon fill="black" stroke="black" points="2618.77,-50.0613 2629.28,-48.6949 2620.21,-43.2112 2618.77,-50.0613"/>
<text text-anchor="middle" x="2584.48" y="-49.2983" font-family="Times,serif" font-size="14.00">SIL:&lt;eps&gt;</text>
</g>
</g>
</svg>
