<?xml version="1.0" encoding="UTF-8" standalone="no"?>
<!DOCTYPE svg PUBLIC "-//W3C//DTD SVG 1.1//EN"
 "http://www.w3.org/Graphics/SVG/1.1/DTD/svg11.dtd">
<!-- Generated by graphviz version 2.38.0 (20140413.2041)
 -->
<!-- Title: FST Pages: 1 -->
<svg width="537pt" height="230pt"
 viewBox="0.00 0.00 537.00 230.00" xmlns="http://www.w3.org/2000/svg" xmlns:xlink="http://www.w3.org/1999/xlink">
<g id="graph0" class="graph" transform="scale(1 1) rotate(0) translate(4 226)">
<title>FST</title>
<polygon fill="white" stroke="none" points="-4,4 -4,-226 533,-226 533,4 -4,4"/>
<!-- 0 -->
<g id="node1" class="node"><title>0</title>
<ellipse fill="none" stroke="black" stroke-width="2" cx="18" cy="-86" rx="18" ry="18"/>
<text text-anchor="middle" x="18" y="-82.3" font-family="Times,serif" font-size="14.00">0</text>
</g>
<!-- 1 -->
<g id="node2" class="node"><title>1</title>
<ellipse fill="none" stroke="black" cx="115" cy="-86" rx="18" ry="18"/>
<text text-anchor="middle" x="115" y="-82.3" font-family="Times,serif" font-size="14.00">1</text>
</g>
<!-- 0&#45;&gt;1 -->
<g id="edge1" class="edge"><title>0&#45;&gt;1</title>
<path fill="none" stroke="black" d="M36.4245,-86C50.3516,-86 70.1386,-86 86.2427,-86"/>
<polygon fill="black" stroke="black" points="86.686,-89.5001 96.686,-86 86.686,-82.5001 86.686,-89.5001"/>
<text text-anchor="middle" x="66.5" y="-89.8" font-family="Times,serif" font-size="14.00">20:20</text>
</g>
<!-- 2 -->
<g id="node3" class="node"><title>2</title>
<ellipse fill="none" stroke="black" cx="212" cy="-18" rx="18" ry="18"/>
<text text-anchor="middle" x="212" y="-14.3" font-family="Times,serif" font-size="14.00">2</text>
</g>
<!-- 0&#45;&gt;2 -->
<g id="edge2" class="edge"><title>0&#45;&gt;2</title>
<path fill="none" stroke="black" d="M32.1705,-74.7697C54.326,-56.7004 101.233,-21.8963 148,-9 159.987,-5.69442 173.611,-7.03486 185.116,-9.57512"/>
<polygon fill="black" stroke="black" points="184.418,-13.0101 194.978,-12.1464 186.184,-6.23659 184.418,-13.0101"/>
<text text-anchor="middle" x="115" y="-33.8" font-family="Times,serif" font-size="14.00">21:21</text>
</g>
<!-- 3 -->
<g id="node4" class="node"><title>3</title>
<ellipse fill="none" stroke="black" cx="309" cy="-86" rx="18" ry="18"/>
<text text-anchor="middle" x="309" y="-82.3" font-family="Times,serif" font-size="14.00">3</text>
</g>
<!-- 0&#45;&gt;3 -->
<g id="edge3" class="edge"><title>0&#45;&gt;3</title>
<path fill="none" stroke="black" d="M30.7646,-99.2066C69.1112,-140.679 192.802,-261.909 276,-199 301.729,-179.545 307.879,-140.981 308.823,-114.356"/>
<polygon fill="black" stroke="black" points="312.326,-114.156 308.954,-104.112 305.326,-114.066 312.326,-114.156"/>
<text text-anchor="middle" x="163.5" y="-210.8" font-family="Times,serif" font-size="14.00">22:22</text>
</g>
<!-- 1&#45;&gt;2 -->
<g id="edge4" class="edge"><title>1&#45;&gt;2</title>
<path fill="none" stroke="black" d="M119.087,-68.2886C122.895,-52.3647 131.076,-29.8608 148,-19 158.609,-12.1915 172.434,-11.3102 184.428,-12.3995"/>
<polygon fill="black" stroke="black" points="183.988,-15.8718 194.372,-13.7645 184.941,-8.93687 183.988,-15.8718"/>
<text text-anchor="middle" x="163.5" y="-22.8" font-family="Times,serif" font-size="14.00">24:24</text>
</g>
<!-- 1&#45;&gt;3 -->
<g id="edge5" class="edge"><title>1&#45;&gt;3</title>
<path fill="none" stroke="black" d="M131.283,-93.8143C136.468,-96.1581 142.375,-98.5015 148,-100 202.972,-114.644 221.028,-114.644 276,-100 278.461,-99.3444 280.976,-98.5271 283.461,-97.6188"/>
<polygon fill="black" stroke="black" points="284.798,-100.853 292.717,-93.8143 282.137,-94.3787 284.798,-100.853"/>
<text text-anchor="middle" x="212" y="-113.8" font-family="Times,serif" font-size="14.00">25:25</text>
</g>
<!-- 4 -->
<g id="node5" class="node"><title>4</title>
<ellipse fill="none" stroke="black" cx="406" cy="-86" rx="18" ry="18"/>
<text text-anchor="middle" x="406" y="-82.3" font-family="Times,serif" font-size="14.00">4</text>
</g>
<!-- 1&#45;&gt;4 -->
<g id="edge6" class="edge"><title>1&#45;&gt;4</title>
<path fill="none" stroke="black" d="M127.227,-99.7268C132.876,-105.824 140.18,-112.601 148,-117 166.416,-127.358 173.043,-126.311 194,-129 273.615,-139.214 297.71,-132.825 373,-105 375.994,-103.893 379.025,-102.506 381.966,-100.988"/>
<polygon fill="black" stroke="black" points="383.961,-103.879 390.903,-95.8746 380.485,-97.8028 383.961,-103.879"/>
<text text-anchor="middle" x="260.5" y="-136.8" font-family="Times,serif" font-size="14.00">26:26</text>
</g>
<!-- 2&#45;&gt;1 -->
<g id="edge7" class="edge"><title>2&#45;&gt;1</title>
<path fill="none" stroke="black" d="M195.99,-26.2576C182.902,-33.6964 163.621,-45.2405 148,-57 143.946,-60.0522 139.798,-63.5177 135.89,-66.9646"/>
<polygon fill="black" stroke="black" points="133.342,-64.5511 128.312,-73.8754 138.059,-69.7235 133.342,-64.5511"/>
<text text-anchor="middle" x="163.5" y="-60.8" font-family="Times,serif" font-size="14.00">27:27</text>
</g>
<!-- 2&#45;&gt;3 -->
<g id="edge8" class="edge"><title>2&#45;&gt;3</title>
<path fill="none" stroke="black" d="M229.628,-13.7645C243.191,-11.3026 262.283,-10.1971 276,-19 289.619,-27.7396 297.576,-44.0183 302.149,-58.3409"/>
<polygon fill="black" stroke="black" points="298.864,-59.5909 304.913,-68.2886 305.608,-57.7165 298.864,-59.5909"/>
<text text-anchor="middle" x="260.5" y="-22.8" font-family="Times,serif" font-size="14.00">29:29</text>
</g>
<!-- 2&#45;&gt;4 -->
<g id="edge9" class="edge"><title>2&#45;&gt;4</title>
<path fill="none" stroke="black" d="M229.022,-12.1464C241.894,-8.29093 260.343,-4.68251 276,-9 317.652,-20.4858 359.415,-49.3491 383.704,-68.2907"/>
<polygon fill="black" stroke="black" points="381.829,-71.2718 391.83,-74.7697 386.193,-65.7987 381.829,-71.2718"/>
<text text-anchor="middle" x="309" y="-33.8" font-family="Times,serif" font-size="14.00">30:30</text>
</g>
<!-- 3&#45;&gt;1 -->
<g id="edge10" class="edge"><title>3&#45;&gt;1</title>
<path fill="none" stroke="black" d="M290.999,-86C257.655,-86 183.429,-86 143.191,-86"/>
<polygon fill="black" stroke="black" points="143.039,-82.5001 133.039,-86 143.039,-89.5001 143.039,-82.5001"/>
<text text-anchor="middle" x="212" y="-89.8" font-family="Times,serif" font-size="14.00">31:31</text>
</g>
<!-- 3&#45;&gt;2 -->
<g id="edge11" class="edge"><title>3&#45;&gt;2</title>
<path fill="none" stroke="black" d="M295.688,-73.8754C289.921,-68.4535 282.829,-62.1405 276,-57 263.552,-47.6292 248.78,-38.3951 236.669,-31.2662"/>
<polygon fill="black" stroke="black" points="238.419,-28.2347 228.01,-26.2576 234.914,-34.2942 238.419,-28.2347"/>
<text text-anchor="middle" x="260.5" y="-60.8" font-family="Times,serif" font-size="14.00">32:32</text>
</g>
<!-- 3&#45;&gt;4 -->
<g id="edge12" class="edge"><title>3&#45;&gt;4</title>
<path fill="none" stroke="black" d="M327.424,-86C341.352,-86 361.139,-86 377.243,-86"/>
<polygon fill="black" stroke="black" points="377.686,-89.5001 387.686,-86 377.686,-82.5001 377.686,-89.5001"/>
<text text-anchor="middle" x="357.5" y="-89.8" font-family="Times,serif" font-size="14.00">34:34</text>
</g>
<!-- 5 -->
<g id="node6" class="node"><title>5</title>
<ellipse fill="none" stroke="black" cx="507" cy="-86" rx="18" ry="18"/>
<ellipse fill="none" stroke="black" cx="507" cy="-86" rx="22" ry="22"/>
<text text-anchor="middle" x="507" y="-82.3" font-family="Times,serif" font-size="14.00">5</text>
</g>
<!-- 4&#45;&gt;5 -->
<g id="edge13" class="edge"><title>4&#45;&gt;5</title>
<path fill="none" stroke="black" d="M424.244,-86C438.06,-86 457.812,-86 474.44,-86"/>
<polygon fill="black" stroke="black" points="474.823,-89.5001 484.823,-86 474.823,-82.5001 474.823,-89.5001"/>
<text text-anchor="middle" x="454.5" y="-89.8" font-family="Times,serif" font-size="14.00">36:36</text>
</g>
</g>
</svg>
