<?xml version="1.0" encoding="UTF-8" standalone="no"?>
<!DOCTYPE svg PUBLIC "-//W3C//DTD SVG 1.1//EN"
 "http://www.w3.org/Graphics/SVG/1.1/DTD/svg11.dtd">
<!-- Generated by graphviz version 2.38.0 (20140413.2041)
 -->
<!-- Title: FST Pages: 1 -->
<svg width="343pt" height="52pt"
 viewBox="0.00 0.00 343.00 52.00" xmlns="http://www.w3.org/2000/svg" xmlns:xlink="http://www.w3.org/1999/xlink">
<g id="graph0" class="graph" transform="scale(1 1) rotate(0) translate(4 48)">
<title>FST</title>
<polygon fill="white" stroke="none" points="-4,4 -4,-48 339,-48 339,4 -4,4"/>
<!-- 0 -->
<g id="node1" class="node"><title>0</title>
<ellipse fill="none" stroke="black" stroke-width="2" cx="18" cy="-22" rx="18" ry="18"/>
<text text-anchor="middle" x="18" y="-18.3" font-family="Times,serif" font-size="14.00">0</text>
</g>
<!-- 1 -->
<g id="node2" class="node"><title>1</title>
<ellipse fill="none" stroke="black" cx="115" cy="-22" rx="18" ry="18"/>
<text text-anchor="middle" x="115" y="-18.3" font-family="Times,serif" font-size="14.00">1</text>
</g>
<!-- 0&#45;&gt;1 -->
<g id="edge1" class="edge"><title>0&#45;&gt;1</title>
<path fill="none" stroke="black" d="M36.4245,-22C50.3516,-22 70.1386,-22 86.2427,-22"/>
<polygon fill="black" stroke="black" points="86.686,-25.5001 96.686,-22 86.686,-18.5001 86.686,-25.5001"/>
<text text-anchor="middle" x="66.5" y="-25.8" font-family="Times,serif" font-size="14.00">92:92</text>
</g>
<!-- 2 -->
<g id="node3" class="node"><title>2</title>
<ellipse fill="none" stroke="black" cx="212" cy="-22" rx="18" ry="18"/>
<text text-anchor="middle" x="212" y="-18.3" font-family="Times,serif" font-size="14.00">2</text>
</g>
<!-- 1&#45;&gt;2 -->
<g id="edge2" class="edge"><title>1&#45;&gt;2</title>
<path fill="none" stroke="black" d="M133.424,-22C147.352,-22 167.139,-22 183.243,-22"/>
<polygon fill="black" stroke="black" points="183.686,-25.5001 193.686,-22 183.686,-18.5001 183.686,-25.5001"/>
<text text-anchor="middle" x="163.5" y="-25.8" font-family="Times,serif" font-size="14.00">94:94</text>
</g>
<!-- 3 -->
<g id="node4" class="node"><title>3</title>
<ellipse fill="none" stroke="black" cx="313" cy="-22" rx="18" ry="18"/>
<ellipse fill="none" stroke="black" cx="313" cy="-22" rx="22" ry="22"/>
<text text-anchor="middle" x="313" y="-18.3" font-family="Times,serif" font-size="14.00">3</text>
</g>
<!-- 2&#45;&gt;3 -->
<g id="edge3" class="edge"><title>2&#45;&gt;3</title>
<path fill="none" stroke="black" d="M230.244,-22C244.06,-22 263.812,-22 280.44,-22"/>
<polygon fill="black" stroke="black" points="280.823,-25.5001 290.823,-22 280.823,-18.5001 280.823,-25.5001"/>
<text text-anchor="middle" x="260.5" y="-25.8" font-family="Times,serif" font-size="14.00">96:96</text>
</g>
</g>
</svg>
