<?xml version="1.0" encoding="UTF-8" standalone="no"?>
<!DOCTYPE svg PUBLIC "-//W3C//DTD SVG 1.1//EN"
 "http://www.w3.org/Graphics/SVG/1.1/DTD/svg11.dtd">
<!-- Generated by graphviz version 2.38.0 (20140413.2041)
 -->
<!-- Title: FST Pages: 1 -->
<svg width="523pt" height="52pt"
 viewBox="0.00 0.00 523.00 52.00" xmlns="http://www.w3.org/2000/svg" xmlns:xlink="http://www.w3.org/1999/xlink">
<g id="graph0" class="graph" transform="scale(1 1) rotate(0) translate(4 48)">
<title>FST</title>
<polygon fill="white" stroke="none" points="-4,4 -4,-48 519,-48 519,4 -4,4"/>
<!-- 0 -->
<g id="node1" class="node"><title>0</title>
<ellipse fill="none" stroke="black" stroke-width="2" cx="18" cy="-22" rx="18" ry="18"/>
<text text-anchor="middle" x="18" y="-18.3" font-family="Times,serif" font-size="14.00">0</text>
</g>
<!-- 1 -->
<g id="node2" class="node"><title>1</title>
<ellipse fill="none" stroke="black" cx="171" cy="-22" rx="18" ry="18"/>
<text text-anchor="middle" x="171" y="-18.3" font-family="Times,serif" font-size="14.00">1</text>
</g>
<!-- 0&#45;&gt;1 -->
<g id="edge1" class="edge"><title>0&#45;&gt;1</title>
<path fill="none" stroke="black" d="M36.0281,-22C61.9701,-22 111.643,-22 142.674,-22"/>
<polygon fill="black" stroke="black" points="142.802,-25.5001 152.802,-22 142.802,-18.5001 142.802,-25.5001"/>
<text text-anchor="middle" x="94.5" y="-25.8" font-family="Times,serif" font-size="14.00">WHAT:WHAT</text>
</g>
<!-- 2 -->
<g id="node3" class="node"><title>2</title>
<ellipse fill="none" stroke="black" cx="294" cy="-22" rx="18" ry="18"/>
<text text-anchor="middle" x="294" y="-18.3" font-family="Times,serif" font-size="14.00">2</text>
</g>
<!-- 1&#45;&gt;2 -->
<g id="edge2" class="edge"><title>1&#45;&gt;2</title>
<path fill="none" stroke="black" d="M189.08,-22C208.965,-22 242.077,-22 265.577,-22"/>
<polygon fill="black" stroke="black" points="265.615,-25.5001 275.615,-22 265.615,-18.5001 265.615,-25.5001"/>
<text text-anchor="middle" x="232.5" y="-25.8" font-family="Times,serif" font-size="14.00">THE:THE</text>
</g>
<!-- 3 -->
<g id="node4" class="node"><title>3</title>
<ellipse fill="none" stroke="black" cx="493" cy="-22" rx="18" ry="18"/>
<ellipse fill="none" stroke="black" cx="493" cy="-22" rx="22" ry="22"/>
<text text-anchor="middle" x="493" y="-18.3" font-family="Times,serif" font-size="14.00">3</text>
</g>
<!-- 2&#45;&gt;3 -->
<g id="edge3" class="edge"><title>2&#45;&gt;3</title>
<path fill="none" stroke="black" d="M312.138,-22C345.292,-22 418.643,-22 460.714,-22"/>
<polygon fill="black" stroke="black" points="460.943,-25.5001 470.943,-22 460.943,-18.5001 460.943,-25.5001"/>
<text text-anchor="middle" x="391.5" y="-25.8" font-family="Times,serif" font-size="14.00">FLAMING:FLAMING</text>
</g>
</g>
</svg>
